<svg width="27" height="27" viewBox="0 0 27 27" fill="none" xmlns="http://www.w3.org/2000/svg">
<path fill-rule="evenodd" clip-rule="evenodd" d="M2.63854 0.0808427C1.41975 0.34114 0.335605 1.43534 0.0801274 2.66288C-0.0138043 3.11438 -0.0304177 5.65775 0.0585036 5.97797C0.138037 6.26443 0.496834 6.6077 0.807742 6.69473C1.30957 6.83524 1.83566 6.62605 2.09652 6.1822L2.24298 5.93308L2.26935 4.45216C2.29557 2.97977 2.29646 2.97012 2.42758 2.77665C2.5001 2.66963 2.65225 2.51714 2.7657 2.43787L2.97197 2.29366L4.45341 2.26729L5.93485 2.24092L6.18395 2.09444C6.62776 1.83357 6.83693 1.30743 6.69643 0.805562C6.60893 0.492994 6.28199 0.153895 5.98147 0.0641224C5.66645 -0.0300278 3.09744 -0.017158 2.63854 0.0808427ZM21.0017 0.0592699C20.7465 0.132797 20.3789 0.522584 20.3046 0.798389C20.1692 1.30126 20.3829 1.8361 20.8224 2.09444L21.0715 2.24092L22.553 2.26729L24.0344 2.29366L24.2407 2.43787C24.3541 2.51714 24.5063 2.66963 24.5788 2.77665C24.7099 2.97012 24.7108 2.97977 24.737 4.45216L24.7634 5.93308L24.9098 6.1822C25.284 6.81878 26.1428 6.92992 26.6634 6.40916C26.9971 6.0755 27.0168 5.94432 26.9929 4.21454C26.9741 2.85139 26.9618 2.68456 26.8581 2.37278C26.5761 1.52559 25.9272 0.764368 25.1589 0.379381C24.4843 0.0413365 24.202 0.000458913 22.5746 0.00494226C21.8059 0.00705207 21.0981 0.0314731 21.0017 0.0592699ZM12.5802 2.34351C10.95 2.72565 9.73015 3.82871 9.22299 5.37926C9.08359 5.80544 9.05543 5.98282 9.0347 6.56603C9.00691 7.34602 9.06983 7.73892 9.33042 8.41301C9.54919 8.97881 9.85651 9.43895 10.3358 9.91825C11.2774 10.8599 12.3252 11.267 13.6878 11.2206C14.2824 11.2003 14.4399 11.1748 14.8744 11.0284C15.6067 10.7817 16.0871 10.4893 16.6163 9.96809C17.5525 9.04611 17.9843 8.03045 17.9843 6.75064C17.9843 6.11047 17.9042 5.67864 17.6758 5.08789C17.4478 4.49831 17.1449 4.05377 16.6163 3.53318C16.0874 3.01232 15.6074 2.72 14.8744 2.47242C14.422 2.31961 14.3018 2.30152 13.635 2.28623C13.1307 2.27468 12.7963 2.29282 12.5802 2.34351ZM9.0202 13.5639C8.83165 13.5908 8.46568 13.6837 8.20693 13.7704C6.16565 14.4542 4.7794 16.1569 4.53917 18.2755C4.47029 18.883 4.4686 21.6447 4.537 21.8908C4.60161 22.1236 4.8814 22.401 5.12043 22.4696C5.36757 22.5405 21.6388 22.5405 21.8859 22.4696C22.125 22.401 22.4048 22.1236 22.4694 21.8908C22.5376 21.6455 22.5362 18.8849 22.4676 18.2755C22.1943 15.8464 20.3074 13.892 17.9142 13.5591C17.4046 13.4882 9.52119 13.4925 9.0202 13.5639ZM0.749147 20.3106C0.50696 20.3843 0.127542 20.7773 0.0585036 21.0261C-0.0304177 21.3463 -0.0138043 23.8897 0.0801274 24.3412C0.314456 25.4671 1.23737 26.4794 2.37484 26.858C2.68659 26.9618 2.85341 26.974 4.21644 26.9928C5.94609 27.0167 6.07725 26.9971 6.41089 26.6633C6.9316 26.1426 6.82048 25.2838 6.18395 24.9096L5.93485 24.7631L4.45404 24.7368C2.98178 24.7105 2.97213 24.7096 2.77867 24.5785C2.67166 24.506 2.51919 24.3538 2.43992 24.2404L2.29572 24.0341L2.26935 22.5525L2.24298 21.071L2.09652 20.8219C1.83677 20.3798 1.25172 20.1579 0.749147 20.3106ZM25.3636 20.4008C25.1583 20.508 25.0382 20.6182 24.9224 20.8053L24.7634 21.0624L24.737 22.5483L24.7106 24.0341L24.5665 24.2404C24.4872 24.3538 24.3347 24.506 24.2277 24.5785C24.0342 24.7096 24.0246 24.7105 22.5523 24.7368L21.0715 24.7631L20.8224 24.9096C20.1865 25.2834 20.0719 26.1398 20.5887 26.6566C20.9301 26.998 21.0534 27.0168 22.7899 26.9928C24.153 26.974 24.3198 26.9618 24.6315 26.858C25.6561 26.5169 26.517 25.6559 26.8581 24.6313C26.9618 24.3195 26.9741 24.1527 26.9929 22.7895C27.0168 21.0613 26.9969 20.9281 26.6652 20.5969C26.2975 20.2298 25.8266 20.1588 25.3636 20.4008Z" fill="#4C4A5B"/>
</svg>
