<svg width="18" height="35" viewBox="0 0 18 35" fill="none" xmlns="http://www.w3.org/2000/svg">
<path d="M16.0074 33.0111C16.0074 33.5613 16.4535 34.0074 17.0037 34.0074C17.5539 34.0074 18 33.5613 18 33.0111C18 26.0401 15.1069 21.9498 11.7958 18.4332C11.5673 18.6632 11.3395 18.891 11.1134 19.1171C10.8692 19.3614 10.6271 19.6035 10.3878 19.8446C10.7207 20.199 11.047 20.5574 11.3642 20.9225H6.63569C7.59786 19.8149 8.64319 18.7694 9.70439 17.7081C13.7828 13.6299 18 9.41267 18 0.99631C18 0.446081 17.5539 0 17.0037 0C16.4535 0 16.0074 0.446081 16.0074 0.99631C16.0074 1.33897 15.9995 1.67354 15.9845 2.00092H2.01547C2.00052 1.67354 1.99262 1.33897 1.99262 0.99631C1.99262 0.446081 1.54654 0 0.99631 0C0.446081 0 0 0.446081 0 0.99631C0 7.96729 2.89308 12.0575 6.20416 15.5742C6.43271 15.3442 6.66047 15.1163 6.88656 14.8903C7.13079 14.646 7.37289 14.4039 7.61221 14.1628C7.28993 13.8197 6.97377 13.4728 6.66611 13.1197H11.334C10.3802 14.2144 9.34565 15.2491 8.29554 16.2992C4.21718 20.3775 0 24.5947 0 33.0111C0 33.5613 0.446081 34.0074 0.99631 34.0074C1.54654 34.0074 1.99262 33.5613 1.99262 33.0111C1.99262 32.6805 2.00019 32.3577 2.01407 32.0413H15.9859C15.9998 32.3577 16.0074 32.6805 16.0074 33.0111ZM12.9326 22.9151C13.5018 23.7283 14.015 24.5905 14.4521 25.5251H3.54793C3.98511 24.5905 4.49821 23.7283 5.0675 22.9151H12.9326ZM15.7931 3.99354C15.6579 4.89514 15.4616 5.73516 15.2137 6.52457H2.78628C2.5384 5.73516 2.34206 4.89507 2.20689 3.99354H15.7931ZM5.09221 11.1271C4.52026 10.3138 4.00417 9.45173 3.56427 8.51719H14.4357C13.9958 9.45173 13.4797 10.3138 12.9078 11.1271H5.09221ZM2.20178 30.0487C2.33515 29.1472 2.52963 28.3072 2.77552 27.5177H15.2245C15.4704 28.3072 15.6649 29.1472 15.7982 30.0487H2.20178Z" fill="#4C4A5B"/>
</svg>
