<svg width="29" height="29" viewBox="0 0 29 29" fill="none" xmlns="http://www.w3.org/2000/svg">
<path d="M15.8585 6.13666L14.8312 3.05417C14.708 2.68556 14.3613 2.43555 13.971 2.43555C13.5807 2.43555 13.2351 2.68556 13.1119 3.0555L12.0848 6.13798L9.00233 7.16371C8.63262 7.28828 8.38371 7.63387 8.38371 8.02416C8.38371 8.41445 8.63262 8.76005 9.00233 8.88439L12.0848 9.91144L13.1119 12.9939C13.2351 13.3636 13.5818 13.6139 13.971 13.6139C14.36 13.6139 14.7069 13.3636 14.8301 12.9939L15.8572 9.91144L18.9397 8.88439C19.3094 8.76005 19.5596 8.41445 19.5596 8.02416C19.5596 7.63387 19.3094 7.28828 18.9397 7.16371L15.8585 6.13666Z" fill="#716F84"/>
<path d="M23.0247 16.5055L23.7593 14.3014L25.9634 13.5679C26.3331 13.4422 26.5831 13.0966 26.5831 12.7063C26.5831 12.3161 26.3331 11.9705 25.9634 11.8461L23.7593 11.1127L23.0247 8.90855C22.9015 8.53883 22.5545 8.28882 22.1656 8.28882C21.7764 8.28882 21.4297 8.53883 21.3065 8.90855L20.5717 11.1127L18.3665 11.8461C17.9967 11.9705 17.7467 12.3161 17.7467 12.7063C17.7467 13.0966 17.9967 13.4422 18.3665 13.5668L20.5706 14.3002L21.3051 16.5041C21.4284 16.8739 21.7753 17.1241 22.1643 17.1241C22.5534 17.1241 22.9015 16.8739 23.0247 16.5055Z" fill="#716F84"/>
<path d="M1.20826 9.08131C1.87534 9.08131 2.41674 8.54123 2.41674 7.87305V6.06055C2.41674 5.39347 2.95925 4.85229 3.625 4.85229H5.4375C6.10458 4.85229 6.64576 4.31199 6.64576 3.64381C6.64576 2.97562 6.10458 2.43555 5.4375 2.43555H3.625C1.62643 2.43555 0 4.06197 0 6.06055V7.87305C0 8.54123 0.541405 9.08131 1.20826 9.08131Z" fill="#716F84"/>
<path d="M25.3748 2.43555H23.5623C22.8952 2.43555 22.3541 2.97562 22.3541 3.64381C22.3541 4.31199 22.8952 4.85229 23.5623 4.85229H25.3748C26.0406 4.85229 26.5831 5.39347 26.5831 6.06055V7.87305C26.5831 8.54123 27.1245 9.08131 27.7916 9.08131C28.4584 9.08131 28.9998 8.54123 28.9998 7.87305V6.06055C28.9998 4.06197 27.3734 2.43555 25.3748 2.43555Z" fill="#716F84"/>
<path d="M5.4375 26.6023C6.10458 26.6023 6.64576 26.062 6.64576 25.3938C6.64576 24.7256 6.10458 24.1855 5.4375 24.1855H3.625C2.95925 24.1855 2.41674 23.6441 2.41674 22.9773V21.1648C2.41674 20.4966 1.87534 19.9563 1.20826 19.9563C0.541405 19.9563 0 20.4966 0 21.1648V22.9773C0 24.9759 1.62643 26.6023 3.625 26.6023H5.4375Z" fill="#716F84"/>
<path d="M27.7916 19.9563C27.1245 19.9563 26.5831 20.4966 26.5831 21.1648V22.9773C26.5831 23.6441 26.0406 24.1855 25.3748 24.1855H23.5623C22.8952 24.1855 22.3541 24.7256 22.3541 25.3938C22.3541 26.062 22.8952 26.6023 23.5623 26.6023H25.3748C27.3734 26.6023 28.9998 24.9759 28.9998 22.9773V21.1648C28.9998 20.4966 28.4584 19.9563 27.7916 19.9563Z" fill="#716F84"/>
<path d="M21.5771 20.2814C21.9493 19.728 21.8019 18.9778 21.2486 18.6043C20.695 18.231 19.9447 18.3784 19.5713 18.9331C18.3774 20.7093 16.391 21.7689 14.2546 21.7689C10.7251 21.7689 7.85417 18.8979 7.85417 15.3685C7.85417 14.2228 8.15972 13.0991 8.73741 12.1205C9.07703 11.5452 8.88609 10.8045 8.31216 10.4651C7.73691 10.1266 6.99615 10.3175 6.65653 10.8914C5.85803 12.2424 5.43633 13.7903 5.43633 15.3685C5.43743 20.2307 9.39232 24.1856 14.2546 24.1856C17.1957 24.1856 19.9339 22.726 21.5771 20.2814Z" fill="#716F84"/>
</svg>
