<svg width="29" height="29" viewBox="0 0 29 29" fill="none" xmlns="http://www.w3.org/2000/svg">
<path d="M25.338 26.6895C25.338 26.6895 26.4528 19.8246 24.7264 15.6628C24.7264 15.6628 23.8008 12.3087 23.8052 11.369C23.8052 11.369 14.1283 17.7666 10.3765 17.2167C10.3765 17.2167 15.3495 13.8854 16.1608 12.145C16.1608 12.145 8.49879 17.4771 5.95241 17.0653C5.95241 17.0653 8.50671 15.3302 9.04696 14.3967C9.04696 14.3967 3.01097 15.581 2.85171 21.7472L2.16189 26.8364C2.16189 26.8364 0.875502 20.6253 0.448759 19.1902C-0.867543 14.7627 0.941493 7.18867 2.91595 5.6612C2.91595 5.6612 6.55953 -0.626434 19.5563 1.30314C19.5563 1.30314 26.4484 1.63838 28.8249 10.9422C29.3801 13.1147 28.5046 17.9866 27.7937 19.8326C27.0889 21.6645 25.2614 28.0647 25.2614 28.0647L25.338 26.6895ZM11.8784 25.5342C13.083 24.6552 13.478 21.1867 13.5695 20.1423C13.5863 19.9672 13.5238 19.793 13.3988 19.6627C13.2739 19.5325 13.0988 19.4586 12.914 19.4586H4.54461C4.35983 19.4586 4.18473 19.5325 4.05979 19.6627C3.93485 19.7912 3.87326 19.9672 3.88821 20.1423C3.97972 21.1867 4.37567 24.6552 5.58023 25.5342C6.48034 26.1888 8.08261 26.2592 8.72932 26.2592C9.37603 26.2592 10.9774 26.1888 11.8784 25.5342ZM12.1846 20.7195C11.9699 22.4238 11.5203 24.2091 11.0812 24.5276C10.7601 24.7625 9.90836 24.9966 8.72932 24.9966C7.5494 24.9966 6.69767 24.7599 6.3774 24.5276C5.93922 24.2091 5.4896 22.4212 5.27403 20.7195H12.1846ZM23.4198 25.5342C24.6235 24.6552 25.0186 21.1867 25.1109 20.1423C25.1277 19.9672 25.0634 19.793 24.9411 19.6627C24.8153 19.5325 24.6402 19.4586 24.4563 19.4586H16.0851C15.9012 19.4586 15.7261 19.5325 15.6003 19.6627C15.4745 19.7912 15.4138 19.9672 15.4305 20.1423C15.522 21.1867 15.9179 24.6552 17.1216 25.5342C18.0209 26.1888 19.6249 26.2592 20.2707 26.2592C20.9166 26.2592 22.5179 26.1888 23.4198 25.5342ZM23.7251 20.7195C23.5113 22.4238 23.0608 24.2091 22.6218 24.5276C22.3015 24.7625 21.4489 24.9966 20.2698 24.9966C19.0899 24.9966 18.2382 24.7599 17.917 24.5276C17.4797 24.2091 17.0284 22.4212 16.8137 20.7195H23.7251ZM16.6817 21.2914C16.6817 20.943 16.3869 20.6596 16.0235 20.6596H12.9747C12.6105 20.6596 12.3166 20.9421 12.3166 21.2914C12.3166 21.6407 12.6105 21.9232 12.9747 21.9232H16.0235C16.3878 21.9232 16.6817 21.6398 16.6817 21.2914Z" fill="#4C4B5C"/>
</svg>
