<svg width="31" height="25" viewBox="0 0 31 25" fill="none" xmlns="http://www.w3.org/2000/svg">
<path fill-rule="evenodd" clip-rule="evenodd" d="M12.3749 0.0380298C12.3971 0.058909 12.5896 0.145523 12.8028 0.230416C13.2335 0.402039 13.9264 0.839583 14.3899 1.23273L14.6937 1.49028L14.2077 1.2843C13.0567 0.796448 12.1389 0.604234 11.7303 0.765416C11.6061 0.81446 11.5045 0.877212 11.5045 0.904917C11.5045 0.932622 11.689 0.986655 11.9145 1.02497C12.4027 1.10797 13.422 1.40848 13.6174 1.52705C13.7947 1.63465 13.7506 1.69798 13.4642 1.74662C12.9803 1.82893 11.5548 2.18359 10.6941 2.43592C8.73836 3.0093 6.67264 3.90796 5.29577 4.78437C4.44187 5.32791 4.44235 5.32763 3.84844 5.58638C2.70107 6.08628 2.33738 6.80282 2.77396 7.70332C2.91763 7.99959 2.92237 8.03045 2.82414 8.03045C2.6088 8.03045 1.98737 8.37989 1.49277 8.77911C0.941077 9.22446 0.375897 9.89678 0.142268 10.3857C0.00492164 10.673 -0.00613411 10.7612 0.00200584 11.5007C0.0119074 12.3985 0.187099 13.9048 0.628965 16.8926C0.79225 17.9968 0.943385 19.0422 0.964829 19.2157C1.05728 19.9643 1.38713 21.6565 1.57976 22.3705C1.88203 23.4911 2.09926 24.0044 2.42692 24.3721C2.62842 24.5982 2.72069 24.5444 2.84747 24.1268C3.01525 23.5742 3.07283 22.627 3.09725 20.0188L3.12173 17.4089L3.33756 17.3909C3.51998 17.3757 3.59002 17.4075 3.79036 17.5967L4.0274 17.8205L4.06506 17.6587C4.10673 17.4795 3.96519 16.9592 3.78295 16.6219C3.7185 16.5026 3.6843 16.4051 3.70684 16.4051C3.78836 16.4051 4.19001 16.7167 4.44004 16.974C4.68224 17.2231 4.69566 17.2292 4.69821 17.0911C4.70253 16.86 4.53104 16.302 4.2982 15.7897L4.08377 15.3177L4.18837 14.7159C4.25853 14.3121 4.31509 14.1262 4.36028 14.1513C4.39728 14.1718 4.62732 14.3417 4.8714 14.5289C5.11554 14.7159 5.32894 14.856 5.3457 14.8402C5.36241 14.8244 5.29316 14.4038 5.19171 13.9053C5.09027 13.407 5.01725 12.9898 5.02946 12.9782C5.04167 12.9667 5.29395 13.0022 5.59009 13.0572C6.25021 13.1796 7.74468 13.1929 8.40645 13.0822C8.65703 13.0403 9.29553 12.8799 9.82535 12.7257C11.6529 12.1938 13.4425 11.949 15.0581 12.0099C16.5116 12.0647 17.0967 12.1908 18.1309 12.6723C20.0471 13.5645 21.1782 14.8618 21.9107 17.0077C22.1297 17.6493 22.3964 18.6784 22.4717 19.1727C22.5172 19.4707 22.5525 19.497 22.7004 19.3427C23.2731 18.7451 22.9728 17.0482 21.8962 14.799C21.7225 14.4362 21.564 14.1032 21.544 14.059C21.4841 13.927 21.8206 14.0326 22.1654 14.2541C22.65 14.5654 23.0543 15.0812 23.4205 15.8554L23.5821 16.1971L23.6564 15.9426C23.9029 15.0977 23.1671 13.8663 21.783 12.8074C21.065 12.2582 21.0451 12.2608 22.4995 12.7131C23.6291 13.0643 24.7218 13.5395 25.0749 13.8331L25.3116 14.0299L25.3236 18.0425C25.3372 22.5864 25.4258 24.2185 25.6916 24.8227C25.7935 25.0544 25.9072 25.0585 26.1037 24.8379C26.3993 24.5063 26.6432 23.6906 26.9663 21.9539C27.2816 20.259 27.44 19.7819 28.2466 18.0972C28.8434 16.8505 29.4075 15.8759 30.0412 14.9966C30.3608 14.5533 30.6571 14.0906 30.6998 13.9686C30.7509 13.8224 30.765 13.5982 30.7411 13.312C30.6613 12.3541 30.0104 11.0825 28.8631 9.6433L28.3883 9.04773L28.6436 9.08628C29.0502 9.14765 29.809 9.55761 30.3637 10.0155C30.6452 10.2479 30.9036 10.4836 30.9378 10.5392C31.0406 10.7058 31.0121 10.5459 30.8807 10.2197C30.2894 8.75055 28.8817 7.29497 27.2145 6.42883C26.6235 6.12184 25.6758 5.76936 25.033 5.61747C24.408 5.46977 24.3641 5.42078 24.2579 4.75207C24.0604 3.5089 23.392 3.12333 20.2519 2.44108C17.4589 1.83433 16.3461 1.48575 14.2161 0.550545C13.4063 0.194968 12.8176 0 12.5538 0C12.4333 0 12.3528 0.0170933 12.3749 0.0380298Z" fill="#363443"/>
</svg>
