<svg width="23" height="23" viewBox="0 0 23 23" fill="none" xmlns="http://www.w3.org/2000/svg">
<path fill-rule="evenodd" clip-rule="evenodd" d="M22.0384 0.0713774C21.9643 0.109924 20.7001 1.34266 19.229 2.81077L16.5544 5.48007L16.0609 5.23639C12.2541 3.3564 8.60083 3.7961 4.69262 6.60458C3.19598 7.68012 1.34335 9.49124 0.225086 10.972C-0.00733026 11.2798 -0.05775 11.5312 0.0645246 11.7722C0.172329 11.9845 0.877172 12.8517 1.46738 13.4981C2.49465 14.623 3.84079 15.816 4.92526 16.5626L5.24773 16.7846L2.70909 19.3195C1.31279 20.7137 0.131301 21.9294 0.0835331 22.0211C-0.0275521 22.2343 -0.0264736 22.4191 0.0871281 22.6418C0.188866 22.8411 0.44775 23 0.67073 23C0.746853 23 0.884137 22.9609 0.975854 22.9131C1.18468 22.8043 22.8335 1.15406 22.9329 0.954587C23.2074 0.403923 22.5835 -0.212153 22.0384 0.0713774ZM12.6169 6.91804C12.823 6.97118 13.1359 7.07411 13.3122 7.14676C13.6388 7.28145 14.2867 7.66103 14.2867 7.71777C14.2867 7.73498 14.0765 7.95858 13.8194 8.21466L13.3521 8.68028L13.1117 8.545C12.447 8.17121 11.6008 8.04317 10.8359 8.20069C9.06687 8.56504 7.88978 10.2598 8.17698 12.0292C8.23652 12.3958 8.32554 12.661 8.51823 13.0457L8.67421 13.3571L8.21207 13.8207C7.95791 14.0757 7.73587 14.2843 7.71866 14.2843C7.66177 14.2843 7.28205 13.6361 7.14674 13.3081C6.87779 12.656 6.8067 12.2689 6.81034 11.4764C6.81304 10.8987 6.83182 10.6911 6.90592 10.4192C7.15411 9.50894 7.56551 8.77844 8.17064 8.17346C8.8691 7.47517 9.84204 6.97815 10.8041 6.82823C11.2404 6.76021 12.1864 6.80711 12.6169 6.91804ZM17.3916 8.46207L15.9415 9.91238L16.0335 10.2102C16.516 11.7719 16.0331 13.6221 14.8287 14.8261C13.6243 16.0302 11.7738 16.5129 10.2116 16.0306L9.91358 15.9385L8.83293 17.019C8.23854 17.6132 7.76463 18.1118 7.77982 18.127C7.83298 18.1802 8.81023 18.5073 9.24518 18.6175C10.1069 18.8359 10.5173 18.8837 11.5231 18.8827C12.2964 18.882 12.5642 18.864 13.006 18.7836C14.6091 18.4915 16.1803 17.8292 17.7469 16.785C19.3983 15.6844 21.0543 14.1523 22.4653 12.4198C23.1782 11.5444 23.1782 11.4533 22.4653 10.5779C21.4257 9.30138 19.8487 7.73565 18.9572 7.09469L18.8418 7.01175L17.3916 8.46207ZM12.9217 12.9309C11.4791 14.3735 11.0598 14.8171 11.1179 14.8393C11.3643 14.9339 12.2603 14.8218 12.7314 14.6374C13.6813 14.2658 14.4894 13.3575 14.7597 12.3577C14.8437 12.0472 14.8988 11.226 14.8424 11.1253C14.8087 11.0651 14.457 11.3957 12.9217 12.9309Z" fill="#817D8E"/>
</svg>
