<svg width="23" height="14" viewBox="0 0 23 14" fill="none" xmlns="http://www.w3.org/2000/svg">
<path fill-rule="evenodd" clip-rule="evenodd" d="M10.2172 0.0603699C7.37868 0.46751 4.52051 1.99195 1.8229 4.53751C0.937419 5.37306 0.267808 6.10666 0.117386 6.40603C0.0194892 6.60077 0 6.69958 0 7.00052C0 7.48193 0.106943 7.68881 0.679153 8.31446C2.65126 10.4707 5.2282 12.3299 7.46757 13.2119C9.01632 13.8219 10.1865 14.0342 11.7861 13.9956C13.312 13.9588 14.5199 13.6751 16.0702 12.9897C17.8713 12.1934 20.0371 10.6412 21.7015 8.95384C22.88 7.75904 23 7.57857 23 7.00052C23 6.50582 22.896 6.31303 22.2557 5.62045C20.5277 3.75159 18.5118 2.21115 16.5383 1.2516C15.1884 0.59524 14.0281 0.22895 12.7602 0.0589687C12.1692 -0.0202682 10.7742 -0.019504 10.2172 0.0603699ZM12.3661 2.39111C13.023 2.5016 13.6775 2.75035 14.2681 3.11396C14.6159 3.32811 15.3926 4.06085 15.6196 4.38901C16.1819 5.20198 16.4464 6.02878 16.4495 6.98434C16.4545 8.49995 15.7438 9.8409 14.4481 10.7604C13.5937 11.3668 12.6046 11.6715 11.4909 11.6715C8.74387 11.6715 6.54226 9.59262 6.5505 7.00646C6.5545 5.74993 7.00001 4.69059 7.89913 3.79966C8.43416 3.26951 9.00443 2.89931 9.66657 2.65226C9.96373 2.54134 10.5317 2.39514 10.8023 2.35985C11.1193 2.31854 12.0446 2.33705 12.3661 2.39111ZM10.9841 3.69036C10.1131 3.81907 9.30222 4.25466 8.75274 4.88902C8.47399 5.21085 8.15456 5.81328 8.04973 6.21494C7.93788 6.64344 7.9476 7.42863 8.07007 7.8559C8.40594 9.02743 9.36604 9.92154 10.6448 10.2537C11.0833 10.3676 11.951 10.3587 12.4137 10.2354C14.2946 9.73449 15.3878 7.98631 14.9413 6.19371C14.8473 5.81655 14.5237 5.20818 14.2473 4.88902C13.7901 4.36124 13.0239 3.90174 12.3552 3.75427C11.9756 3.67053 11.3239 3.64017 10.9841 3.69036Z" fill="#9995A4"/>
</svg>
