<svg width="22" height="22" viewBox="0 0 22 22" fill="none" xmlns="http://www.w3.org/2000/svg">
<g clip-path="url(#clip0_4_1295)">
<path d="M9.57717 8.68032C8.82436 7.9275 7.59949 7.92755 6.84672 8.68032C6.09215 9.43489 6.09206 10.6561 6.84672 11.4108C7.22309 11.7871 7.71753 11.9753 8.21197 11.9753C8.70637 11.9753 9.20081 11.7871 9.57722 11.4107C10.3299 10.658 10.3299 9.43309 9.57717 8.68032ZM8.66701 10.5006C8.41607 10.7515 8.00778 10.7515 7.75685 10.5006C7.50535 10.2491 7.50531 9.84202 7.75685 9.59048C8.00843 9.33894 8.41543 9.33894 8.66701 9.59048C8.91795 9.84142 8.91795 10.2497 8.66701 10.5006Z" fill="#817D8E"/>
<path d="M10.4873 15.0511C9.73458 14.2984 8.50971 14.2984 7.7569 15.0512C7.00228 15.8057 7.00224 17.027 7.7569 17.7816C8.50962 18.5344 9.73453 18.5344 10.4873 17.7816C11.2418 17.0271 11.242 15.8057 10.4873 15.0511ZM9.57718 16.8715C9.32624 17.1224 8.91796 17.1224 8.66706 16.8715C8.41552 16.6199 8.41552 16.2129 8.66706 15.9613C8.91864 15.7098 9.32564 15.7098 9.57718 15.9613C9.82868 16.2128 9.82872 16.6199 9.57718 16.8715Z" fill="#817D8E"/>
<path d="M13.4023 12.7049C13.363 12.3516 13.0446 12.0972 12.6916 12.1363L4.50029 13.0464C4.147 13.0857 3.89246 13.4039 3.93173 13.7571C3.97101 14.1105 4.28932 14.3649 4.64239 14.3256L12.8337 13.4155C13.187 13.3763 13.4416 13.0581 13.4023 12.7049Z" fill="#817D8E"/>
<path d="M15.103 5.0261L14.1928 4.11598C13.9416 3.86466 13.5341 3.86466 13.2827 4.11598C13.0314 4.36731 13.0314 4.77478 13.2827 5.0261L14.1928 5.93622C14.4441 6.18754 14.8517 6.18754 15.103 5.93622C15.3543 5.68489 15.3543 5.27742 15.103 5.0261Z" fill="#817D8E"/>
<path d="M17.8334 7.75657L16.9233 6.84645C16.672 6.59513 16.2645 6.59513 16.0132 6.84645C15.7619 7.09778 15.7619 7.50525 16.0132 7.75657L16.9233 8.66669C17.1746 8.91802 17.5822 8.91802 17.8334 8.66669C18.0848 8.41541 18.0848 8.00794 17.8334 7.75657Z" fill="#817D8E"/>
<path d="M21.4347 7.79584L20.3829 6.74414C21.1127 5.27929 20.8407 3.48255 19.6538 2.29567C18.4667 1.10861 16.6698 0.836836 15.2048 1.56675L14.2183 0.580355C13.4654 -0.172329 12.2407 -0.172286 11.4879 0.580441L0.566695 11.5017C-0.187879 12.2563 -0.187965 13.4775 0.566695 14.2321L1.58162 15.247C0.907137 16.7209 1.22321 18.4508 2.36098 19.5885C3.50593 20.7335 5.24492 21.0424 6.71707 20.3612L7.82863 21.4413C8.58161 22.173 9.79763 22.1636 10.5393 21.4218C11.9855 19.9756 20.4974 11.4638 20.5639 11.3973L21.4348 10.5264C22.1894 9.77184 22.1894 8.55046 21.4347 7.79584ZM9.62915 20.5116C9.38178 20.759 8.97645 20.7619 8.72556 20.5181L7.27592 19.1096C7.27532 19.109 7.27472 19.1084 7.27412 19.1077C6.91168 18.7556 6.4758 18.8685 6.26839 19.1484C5.28832 19.6513 4.06272 19.4699 3.27111 18.6783C2.42411 17.8313 2.27578 16.4848 2.91833 15.4766C3.08054 15.2221 3.0441 14.889 2.83068 14.6756L1.47682 13.322C1.22532 13.0705 1.22528 12.6634 1.47682 12.4119L8.34219 5.54651L16.4683 13.6726L9.62915 20.5116ZM20.5246 9.61617L20.1088 10.032L19.6538 9.57689C19.4025 9.32557 18.995 9.32557 18.7436 9.57689C18.4923 9.82822 18.4923 10.2357 18.7436 10.487L19.1987 10.9421L17.3784 12.7624L9.25231 4.63635L11.0726 2.81602L11.4625 3.20579C11.7137 3.45711 12.1213 3.45711 12.3726 3.20579C12.6239 2.95446 12.6239 2.54699 12.3726 2.29567L11.9827 1.9059L12.398 1.4906C12.6489 1.23971 13.0572 1.23975 13.3081 1.4906L14.6462 2.82848C14.8657 3.04784 15.2105 3.07933 15.4661 2.90333C16.487 2.20045 17.8654 2.32768 18.7436 3.20587C19.6217 4.08398 19.749 5.46225 19.0463 6.48306C18.8703 6.73872 18.9019 7.08359 19.1214 7.30307L20.5245 8.706C20.7762 8.95754 20.7762 9.36463 20.5246 9.61617Z" fill="#817D8E"/>
</g>
<defs>
<clipPath id="clip0_4_1295">
<rect width="22" height="22" fill="white" transform="translate(0.000732422)"/>
</clipPath>
</defs>
</svg>
