<svg width="21" height="25" viewBox="0 0 21 25" fill="none" xmlns="http://www.w3.org/2000/svg">
<path d="M10.6707 0.0399984C4.34073 0.0399984 0.590733 3.85 0.590733 10.3V14.23C0.590733 20.95 4.43073 24.88 10.5207 24.88C14.0907 24.88 16.1007 23.95 17.3907 22.96L16.5807 21.58C15.2907 22.63 13.4007 23.32 10.4907 23.32C5.45073 23.32 2.21073 19.96 2.21073 14.23V10.3C2.21073 4.84 5.33073 1.6 10.6707 1.6C15.6507 1.6 18.5907 4.36 18.5907 9.94V13.18C18.5907 15.58 17.6907 16.75 16.1007 16.75C14.8407 16.72 14.3907 16.09 14.3907 15.04V6.82H13.0407L12.8607 7.96C12.2607 7.03 11.3007 6.55 10.0407 6.55C7.85073 6.55 6.32073 8.02 6.32073 10.9V14.14C6.32073 17.08 7.94073 18.58 10.0707 18.58C11.5107 18.58 12.5307 17.89 13.1007 16.78C13.6107 17.74 14.6607 18.34 16.1007 18.31C18.4407 18.31 20.2107 16.57 20.2107 13.18V9.94C20.2107 3.37 16.6707 0.0399984 10.6707 0.0399984ZM10.3107 16.99C8.87073 16.99 7.94073 16.15 7.94073 14.14V10.9C7.94073 8.89 8.87073 8.11 10.2207 8.11C12.0207 8.11 12.8007 9.55 12.8007 10.9V14.17C12.8007 16.12 11.7507 16.99 10.3107 16.99Z" fill="#817D8E"/>
</svg>
