<svg width="16" height="18" viewBox="0 0 16 18" fill="none" xmlns="http://www.w3.org/2000/svg">
<path fill-rule="evenodd" clip-rule="evenodd" d="M7.46702 0.0116407C6.69585 0.10674 5.89363 0.392751 5.29043 0.787634C4.96899 0.998098 4.87353 1.07601 4.50813 1.42638C3.84506 2.06228 3.37642 2.91093 3.16782 3.85366C3.06912 4.2997 3.06912 5.28409 3.16782 5.73013C3.59327 7.65279 5.06965 9.09106 7.04326 9.50554C7.50111 9.60169 8.51158 9.60169 8.96944 9.50554C10.9453 9.09058 12.4189 7.65501 12.8449 5.73013C12.9436 5.28409 12.9436 4.2997 12.8449 3.85366C12.4185 1.92661 10.9424 0.489239 8.96944 0.079869C8.68798 0.0214734 7.73734 -0.0217228 7.46702 0.0116407ZM3.64925 9.66534C3.12028 10.0019 2.82996 10.2321 2.3505 10.6947C0.934255 12.0611 0.107384 13.8723 0.00807032 15.8255C-0.0197823 16.3732 0.0209371 16.6382 0.185587 16.981C0.324966 17.2711 0.698568 17.6494 0.985762 17.7912C1.42763 18.0093 1.19213 18.0012 7.04326 17.9995C12.1977 17.9979 12.4069 17.9952 12.1638 17.9334C11.4981 17.7641 10.946 17.193 10.8194 16.5427C10.7977 16.4316 10.78 16.1065 10.78 15.8204V15.3001H10.2103C9.37605 15.3001 9.03454 15.1936 8.59372 14.796C7.84043 14.1166 7.81327 12.9918 8.53242 12.2573C8.94671 11.8342 9.35587 11.6973 10.2065 11.6973H10.7724L10.7891 11.0499C10.8012 10.5753 10.8223 10.36 10.8682 10.243C10.9026 10.1553 10.9247 10.0835 10.9174 10.0835C10.9101 10.0835 10.777 10.1447 10.6218 10.2195C10.2572 10.395 9.54976 10.6188 9.08501 10.7058C8.5315 10.8093 7.43566 10.8028 6.86978 10.6927C6.42857 10.6068 5.83512 10.425 5.45327 10.2588C5.15036 10.1269 4.55667 9.78337 4.32503 9.60593C4.22036 9.5258 4.11561 9.44902 4.09227 9.43532C4.06888 9.42162 3.86952 9.52513 3.64925 9.66534ZM12.3788 10.247C12.2361 10.3114 12.1081 10.4438 12.0539 10.5832C12.0282 10.6494 12.0128 11.1017 12.0128 11.792V12.8951L10.8213 12.9061C9.68736 12.9165 9.62472 12.9207 9.52352 12.9944C9.32143 13.1415 9.25836 13.2614 9.25836 13.4987C9.25836 13.736 9.32143 13.8559 9.52352 14.003C9.62472 14.0766 9.68736 14.0809 10.8198 14.0913L12.0096 14.1022L12.0209 15.2614C12.0315 16.3646 12.0359 16.4256 12.1115 16.5242C12.2625 16.7211 12.3856 16.7825 12.6292 16.7825C12.8728 16.7825 12.9958 16.7211 13.1469 16.5242C13.2224 16.4256 13.2268 16.3646 13.2375 15.2614L13.2487 14.1022L14.4386 14.0913C15.571 14.0809 15.6336 14.0766 15.7348 14.003C15.9369 13.8559 16 13.736 16 13.4987C16 13.2614 15.9369 13.1415 15.7348 12.9944C15.6336 12.9207 15.571 12.9165 14.4386 12.9061L13.2487 12.8951L13.2375 11.736C13.2268 10.6328 13.2224 10.5718 13.1469 10.4732C13.1032 10.4162 13.0221 10.3367 12.9668 10.2964C12.8391 10.2035 12.5323 10.1778 12.3788 10.247Z" fill="white"/>
</svg>
