<svg width="15" height="18" viewBox="0 0 15 18" fill="none" xmlns="http://www.w3.org/2000/svg">
<path opacity="0.8" d="M7.5 8C8.7364 8 9.80702 7.60582 10.6818 6.82809C11.5566 6.05049 12 5.09905 12 3.99987C12 2.90107 11.5566 1.94951 10.6816 1.17166C9.80673 0.394184 8.73625 0 7.5 0C6.26346 0 5.19313 0.394184 4.31836 1.17178C3.44359 1.94938 3 2.90095 3 3.99987C3 5.09905 3.44359 6.05062 4.3185 6.82822C5.19341 7.60569 6.26389 8 7.5 8Z" fill="white"/>
<path opacity="0.8" d="M14.9636 13.5305C14.9394 13.1536 14.8903 12.7425 14.818 12.3083C14.745 11.8709 14.651 11.4573 14.5386 11.0794C14.4224 10.6888 14.2644 10.303 14.069 9.93329C13.8663 9.54959 13.6282 9.21547 13.361 8.94053C13.0816 8.65289 12.7395 8.42164 12.3439 8.25295C11.9496 8.08515 11.5127 8.00015 11.0454 8.00015C10.8619 8.00015 10.6844 8.08117 10.3416 8.32128C10.1306 8.4693 9.88386 8.6405 9.60843 8.82984C9.37291 8.99129 9.05385 9.14256 8.65977 9.27952C8.27528 9.41337 7.8849 9.48126 7.49959 9.48126C7.11428 9.48126 6.72403 9.41337 6.33914 9.27952C5.94546 9.14271 5.62641 8.99144 5.39116 8.82999C5.11833 8.64241 4.87143 8.47122 4.65731 8.32113C4.31493 8.08102 4.1373 8 3.95376 8C3.48629 8 3.04955 8.08515 2.65546 8.2531C2.26014 8.42149 1.9179 8.65274 1.63821 8.94067C1.37114 9.21576 1.13288 9.54973 0.930419 9.93329C0.735227 10.303 0.577208 10.6886 0.460888 11.0795C0.348547 11.4575 0.254586 11.8709 0.181612 12.3083C0.109324 12.7419 0.0602173 13.1532 0.0359383 13.531C0.0120709 13.9011 0 14.2853 0 14.6733C0 15.683 0.298343 16.5004 0.886662 17.1033C1.46771 17.6982 2.23654 18 3.17149 18H11.8285C12.7635 18 13.532 17.6983 14.1132 17.1033C14.7017 16.5009 15 15.6833 15 14.6731C14.9999 14.2834 14.9877 13.8989 14.9636 13.5305Z" fill="white"/>
</svg>
