<svg width="36" height="12" viewBox="0 0 36 12" fill="none" xmlns="http://www.w3.org/2000/svg">
<path fill-rule="evenodd" clip-rule="evenodd" d="M1.26755 0.127246C1.07749 0.197912 0.80855 0.396427 0.587839 0.628942C-0.0139646 1.26286 2.76266e-05 1.13538 2.76266e-05 5.99849C2.76266e-05 10.8602 -0.0137536 10.7343 0.586503 11.3667C1.24772 12.0632 -0.53955 11.9984 18 11.9984C36.5395 11.9984 34.7523 12.0632 35.4135 11.3667C36.0138 10.7343 36 10.8602 36 5.99849C36 1.13679 36.0138 1.26264 35.4135 0.630276C34.752 -0.0665285 36.545 -0.0022335 17.9699 0.00443307C3.22884 0.00969225 1.55049 0.0220628 1.26755 0.127246ZM34.4587 1.31012C34.8799 1.57219 34.875 1.51715 34.875 5.99849C34.875 10.4798 34.8799 10.4248 34.4587 10.6869C34.2689 10.805 33.1958 10.8132 18 10.8132C2.80416 10.8132 1.73112 10.805 1.54128 10.6869C1.1201 10.4248 1.12503 10.4798 1.12503 5.99849C1.12503 1.53419 1.12102 1.58071 1.52974 1.31375C1.70995 1.19605 2.79804 1.18753 17.9892 1.18575C33.1972 1.1839 34.2688 1.19197 34.4587 1.31012ZM5.28569 2.98476C5.14844 3.13876 5.13283 3.23705 5.13283 3.94771C5.13283 4.38311 5.11673 4.73925 5.09697 4.73925C5.07728 4.73925 4.74344 4.47259 4.35511 4.14667C3.96677 3.82075 3.58891 3.55408 3.51537 3.55408C3.09602 3.55408 2.79741 3.97275 2.9464 4.3517C2.9933 4.47111 3.37868 4.84629 3.86897 5.24999C4.33204 5.63131 4.71096 5.96753 4.71096 5.99716C4.71096 6.02679 4.33254 6.36241 3.87002 6.74307C3.37341 7.15174 2.99562 7.5201 2.94738 7.64269C2.79734 8.02431 3.09448 8.4429 3.51537 8.4429C3.58891 8.4429 3.96677 8.17624 4.35511 7.85032C4.74344 7.5244 5.07728 7.25773 5.09697 7.25773C5.11673 7.25773 5.13283 7.61862 5.13283 8.05965C5.13283 8.80208 5.14493 8.87349 5.29553 9.0226C5.5526 9.27689 6.02685 9.21378 6.15644 8.90793C6.18717 8.83549 6.23041 8.43853 6.25263 8.02572L6.29299 7.27521L6.94851 7.82195C7.30907 8.12268 7.67849 8.38838 7.76955 8.41246C7.99855 8.47305 8.31594 8.29587 8.39322 8.06424C8.51865 7.68854 8.40264 7.52025 7.5058 6.7767C7.03211 6.38397 6.64455 6.03405 6.64455 5.99908C6.64455 5.96412 6.99259 5.64746 7.41798 5.29532C7.84337 4.94325 8.24676 4.58703 8.31447 4.50377C8.49144 4.28615 8.46986 3.95178 8.2649 3.73593C7.9667 3.42172 7.76097 3.48675 6.98704 4.13993L6.29299 4.72577L6.25621 3.97326C6.21902 3.21046 6.14217 2.9418 5.93763 2.85913C5.70468 2.76491 5.43553 2.81684 5.28569 2.98476ZM13.5122 2.98476C13.375 3.13876 13.3594 3.23705 13.3594 3.94771C13.3594 4.38311 13.3435 4.73925 13.3242 4.73925C13.3047 4.73925 12.9687 4.47259 12.5774 4.14667C12.186 3.82075 11.8079 3.55408 11.737 3.55408C11.3587 3.55408 11.0473 3.95015 11.1353 4.31933C11.1614 4.42896 11.5078 4.76888 12.0573 5.22406C12.5414 5.62509 12.9375 5.9736 12.9375 5.99849C12.9375 6.02338 12.5414 6.37189 12.0573 6.77292C11.5078 7.2281 11.1614 7.56803 11.1353 7.67765C11.0473 8.04683 11.3587 8.4429 11.737 8.4429C11.8079 8.4429 12.186 8.17624 12.5774 7.85032C12.9687 7.5244 13.3047 7.25773 13.3242 7.25773C13.3435 7.25773 13.3594 7.61862 13.3594 8.05965C13.3594 8.80208 13.3715 8.87349 13.5221 9.0226C13.7275 9.22585 14.0587 9.2303 14.2602 9.0326C14.3448 8.94956 14.4181 8.87452 14.423 8.86593C14.4279 8.85734 14.4517 8.49498 14.4757 8.06076L14.5195 7.27122L15.2136 7.85706C15.5954 8.17928 15.9687 8.4429 16.0433 8.4429C16.2759 8.4429 16.5897 8.22624 16.6355 8.03417C16.7234 7.66506 16.6091 7.50766 15.7154 6.76641C15.2317 6.3653 14.8359 6.01946 14.8359 5.99783C14.8359 5.97627 15.2185 5.64257 15.6862 5.25636C16.1537 4.87007 16.5651 4.49792 16.6002 4.42933C16.7489 4.13889 16.6384 3.81067 16.3347 3.64023C16.057 3.48446 15.9154 3.54757 15.2136 4.13993L14.5195 4.72577L14.4828 3.97326C14.4456 3.21046 14.3687 2.9418 14.1642 2.85913C13.9312 2.76491 13.6621 2.81684 13.5122 2.98476ZM21.7783 2.90595C21.5875 3.05854 21.5156 3.37935 21.5156 4.07748V4.73948L20.8402 4.18326C20.4687 3.87734 20.0834 3.60549 19.9838 3.5792C19.6122 3.4809 19.26 3.89178 19.3591 4.30785C19.3869 4.42474 19.7172 4.75288 20.2829 5.22562C20.7672 5.63035 21.1556 5.9836 21.1461 6.01064C21.1366 6.03768 20.765 6.36456 20.3203 6.73708C19.8756 7.10959 19.4722 7.46884 19.4238 7.53536C19.1714 7.88298 19.4984 8.4429 19.9538 8.4429C20.028 8.4429 20.4098 8.17528 20.8022 7.84817L21.5156 7.25344V7.91743C21.5156 8.62001 21.5854 8.92526 21.782 9.08267C21.9764 9.23822 22.3164 9.2043 22.4878 9.01223C22.625 8.85823 22.6406 8.75993 22.6406 8.04928C22.6406 7.61388 22.6601 7.25773 22.6839 7.25773C22.7077 7.25773 23.0439 7.5244 23.4311 7.85032C23.8183 8.17624 24.1929 8.4429 24.2635 8.4429C24.6401 8.4429 24.9526 8.04676 24.8653 7.68017C24.8401 7.57454 24.4816 7.22099 23.9436 6.77137C23.4593 6.36663 23.0631 6.01886 23.0631 5.99849C23.0631 5.97812 23.4593 5.63035 23.9436 5.22562C24.4586 4.79518 24.8406 4.42081 24.8637 4.32355C24.9161 4.10356 24.8429 3.87838 24.6609 3.69971C24.3927 3.43653 24.1856 3.51127 23.4226 4.14667C23.0313 4.47259 22.6952 4.73925 22.6758 4.73925C22.6565 4.73925 22.6406 4.37837 22.6406 3.93734C22.6406 3.1949 22.6285 3.1235 22.4779 2.97439C22.2969 2.79528 21.9581 2.76217 21.7783 2.90595ZM30.0402 2.86269C29.8599 2.9392 29.7796 3.2395 29.7438 3.97126L29.707 4.72177L29.0515 4.17504C28.6909 3.8743 28.3134 3.60645 28.2126 3.57979C27.8387 3.4809 27.4862 3.8903 27.5856 4.30785C27.6135 4.42474 27.9438 4.75281 28.5095 5.22562C28.9938 5.63035 29.39 5.97812 29.39 5.99849C29.39 6.01886 28.9938 6.36663 28.5095 6.77137C27.5978 7.53328 27.4839 7.69632 27.6068 8.06424C27.6841 8.29587 28.0014 8.47305 28.2305 8.41246C28.3215 8.38838 28.6909 8.12268 29.0515 7.82195L29.707 7.27521L29.7474 8.02572C29.7696 8.43853 29.8128 8.83549 29.8436 8.90793C29.9763 9.22119 30.4747 9.28089 30.7143 9.01223C30.8516 8.85823 30.8672 8.75993 30.8672 8.04928C30.8672 7.61388 30.8833 7.25773 30.903 7.25773C30.9227 7.25773 31.2566 7.5244 31.6449 7.85032C32.0332 8.17624 32.4111 8.4429 32.4846 8.4429C32.9054 8.4429 33.2027 8.02431 33.0527 7.64299C33.0049 7.52128 32.6235 7.14811 32.1301 6.74011C31.6675 6.35752 31.289 6.02383 31.289 5.99849C31.289 5.97316 31.6675 5.63946 32.1301 5.25687C32.6235 4.84888 33.0049 4.4757 33.0527 4.354C33.2027 3.97267 32.9054 3.55408 32.4846 3.55408C32.4111 3.55408 32.0332 3.82075 31.6449 4.14667C31.2566 4.47259 30.9227 4.73925 30.903 4.73925C30.8833 4.73925 30.8672 4.37837 30.8672 3.93734C30.8672 3.1949 30.8551 3.1235 30.7045 2.97439C30.5512 2.82269 30.2527 2.77254 30.0402 2.86269Z" fill="#817D8E"/>
</svg>
