<svg width="23" height="20" viewBox="0 0 23 20" fill="none" xmlns="http://www.w3.org/2000/svg">
<path fill-rule="evenodd" clip-rule="evenodd" d="M5.46425 0.0269247C3.39661 0.345853 1.71094 1.61487 0.725623 3.59418C0.448909 4.15001 0.262587 4.69946 0.121056 5.37672C0.0175633 5.87193 0.00167257 6.05698 9.70074e-05 6.78392C-0.00143354 7.48874 0.0144122 7.696 0.100348 8.09601C0.391693 9.45176 1.06176 10.834 2.10253 12.2262C3.14029 13.6145 4.85239 15.329 6.61217 16.7421C7.87307 17.7547 9.74701 19.079 10.8274 19.721C11.4412 20.0858 11.5476 20.0886 12.1064 19.7546C14.5895 18.2709 17.6509 15.8304 19.4096 13.9326C21.4492 11.7318 22.525 9.88751 22.9181 7.91806C23.0368 7.32305 23.0247 6.10177 22.8934 5.43767C22.477 3.3319 21.2369 1.58655 19.5159 0.684463C18.9718 0.399242 18.7037 0.295315 18.1363 0.149583C17.5252 -0.00732529 16.4476 -0.0480002 15.818 0.0620797C15.0913 0.189126 14.2112 0.52484 13.6383 0.893447C12.939 1.34349 12.1844 2.07505 11.758 2.71639C11.6273 2.91303 11.5096 3.07387 11.4964 3.07387C11.4833 3.07387 11.3618 2.90588 11.2265 2.7006C10.9037 2.21115 10.0539 1.35928 9.56073 1.03095C8.81616 0.535247 8.01924 0.210436 7.19189 0.0654278C6.83792 0.00335238 5.77104 -0.0204011 5.46425 0.0269247Z" fill="white"/>
</svg>
