<svg width="22" height="22" viewBox="0 0 22 22" fill="none" xmlns="http://www.w3.org/2000/svg">
<path d="M15.6414 7.3933C16.4007 7.3933 17.0163 6.77769 17.0163 6.01831C17.0163 5.25892 16.4007 4.64331 15.6414 4.64331C14.882 4.64331 14.2664 5.25892 14.2664 6.01831C14.2664 6.77769 14.882 7.3933 15.6414 7.3933Z" fill="#817D8E"/>
<path d="M21.7634 7.13062C21.3045 5.96213 20.463 4.27617 19.06 2.87986C17.662 1.48837 15.9939 0.670936 14.8407 0.230164C13.5747 -0.253705 12.1361 0.0512863 11.1757 1.00712L7.80108 4.36598C6.80073 5.3616 6.51241 6.8936 7.08359 8.17815C7.2607 8.57655 7.45333 8.96623 7.65915 9.34272L0.252442 16.7494C0.0912672 16.9106 0.000732422 17.1291 0.000732422 17.3571V21.1383C0.000732422 21.613 0.385473 21.9977 0.860104 21.9977H4.64134C5.11597 21.9977 5.50071 21.613 5.50071 21.1383V19.5915L7.04758 19.5914C7.52221 19.5914 7.90695 19.2067 7.90695 18.732V17.1852H9.45382C9.92845 17.1852 10.3132 16.8005 10.3132 16.3258C10.3132 15.8512 9.92845 15.4665 9.45382 15.4665H7.04758C6.57295 15.4665 6.18821 15.8512 6.18821 16.3258V17.8727L4.64134 17.8727C4.16671 17.8727 3.78197 18.2575 3.78197 18.7321V20.279H1.71948V17.713L9.34017 10.0924C9.62015 9.81241 9.67262 9.37744 9.46727 9.03894C9.16945 8.54806 8.89587 8.0235 8.65417 7.47982C8.37063 6.84212 8.51509 6.08034 9.01365 5.58409L12.3883 2.22528C12.8701 1.7458 13.5919 1.59287 14.2272 1.83564C15.2251 2.21703 16.6631 2.91905 17.8476 4.09802C19.0393 5.28413 19.7649 6.74347 20.1636 7.75882C20.4124 8.39252 20.2612 9.11246 19.7784 9.59302L16.363 12.9924C15.8656 13.4874 15.1233 13.6321 14.4717 13.3611C13.9343 13.1376 13.4138 12.872 12.9248 12.5719C12.5204 12.3236 11.9912 12.4503 11.7429 12.8548C11.4946 13.2593 11.6212 13.7885 12.0257 14.0368C12.5909 14.3836 13.1917 14.6902 13.8116 14.948C15.1068 15.4868 16.5842 15.1972 17.5754 14.2106L20.9908 10.8113C21.9596 9.84709 22.2628 8.40236 21.7634 7.13062Z" fill="#817D8E"/>
</svg>
