<svg width="23" height="30" viewBox="0 0 23 30" fill="none" xmlns="http://www.w3.org/2000/svg">
<path fill-rule="evenodd" clip-rule="evenodd" d="M10.4818 0.0353773C6.52283 0.510185 3.36412 3.44635 2.696 7.27249C2.59526 7.84956 2.57573 8.22685 2.57573 9.59745V11.2336H1.55453C0.758894 11.2336 0.49458 11.2532 0.357662 11.3225C-0.0228477 11.5151 0.000271413 10.9734 0.000271413 19.6961C0.000271413 24.7848 0.0219534 27.7486 0.0606452 27.9483C0.253625 28.9446 1.07921 29.7548 2.08975 29.9394C2.53249 30.0203 20.4701 30.0202 20.9058 29.9392C21.9235 29.7503 22.7509 28.942 22.9395 27.9526C22.978 27.7508 22.9997 24.7691 22.9997 19.6961C22.9997 10.9734 23.0228 11.5151 22.6423 11.3225C22.5054 11.2532 22.2411 11.2336 21.4455 11.2336H20.4243V9.59745C20.4243 8.22685 20.4047 7.84956 20.304 7.27249C19.8195 4.49788 18.0262 2.15562 15.3882 0.851822C14.8674 0.594451 13.7223 0.230883 13.0872 0.121285C12.4249 0.00693692 11.0865 -0.0371603 10.4818 0.0353773ZM12.9075 3.932C14.3102 4.3338 15.4456 5.27515 16.0792 6.56171C16.5281 7.47321 16.5465 7.58281 16.5751 9.51834L16.6005 11.2336H11.5H6.39951L6.42491 9.51834C6.45354 7.58281 6.47192 7.47321 6.92083 6.56171C7.64412 5.09296 9.01606 4.08523 10.701 3.78505C11.2355 3.68988 12.3126 3.7616 12.9075 3.932ZM12.2187 16.3483C13.4217 16.7016 14.2145 17.924 14.0158 19.1193C13.9335 19.6141 13.6497 20.1621 13.306 20.4899L13.0108 20.7714L13.2195 22.603C13.4471 24.6004 13.4444 24.6676 13.1261 24.8791C12.984 24.9736 12.814 24.9846 11.5 24.9846C10.186 24.9846 10.016 24.9736 9.87393 24.8791C9.55565 24.6676 9.55289 24.6004 9.78049 22.603L9.98916 20.7714L9.694 20.4899C9.15489 19.9758 8.87381 19.1524 8.98198 18.4042C9.19892 16.9045 10.7524 15.9178 12.2187 16.3483Z" fill="black" fill-opacity="0.32"/>
</svg>
