<svg width="23" height="23" viewBox="0 0 23 23" fill="none" xmlns="http://www.w3.org/2000/svg">
<path fill-rule="evenodd" clip-rule="evenodd" d="M17.6748 0.0667778C17.1881 0.197926 16.8266 0.487653 16.5861 0.939239C16.4935 1.11335 16.4736 1.23548 16.4731 1.63733C16.4723 2.23058 16.5595 2.43976 17.0141 2.93538L17.3206 3.26961L15.869 3.28663L14.4173 3.30361L14.085 3.46823C13.7896 3.61461 13.4444 3.9411 10.9822 6.40303L8.21168 9.17315L5.38864 6.36114C3.17318 4.15438 2.51037 3.52273 2.30901 3.4264C1.94122 3.25039 1.23371 3.24957 0.897792 3.42476C0.583322 3.58877 0.300258 3.86783 0.13666 4.1752C0.0165786 4.40083 0.000208472 4.48989 0.000157155 4.91861C5.45214e-05 5.33 0.018734 5.44151 0.120444 5.63639C0.201525 5.79179 1.16023 6.78755 3.05798 8.68736L5.87507 11.5076L3.08133 14.2985C1.12831 16.2494 0.244272 17.1674 0.143639 17.3486C0.0142181 17.5818 -0.000253295 17.6569 3.28913e-06 18.095C0.000208557 18.5236 0.0166299 18.6129 0.13666 18.8384C0.300258 19.1458 0.583322 19.4248 0.897792 19.5889C1.23371 19.764 1.94122 19.7632 2.30901 19.5872C2.51037 19.4909 3.17318 18.8592 5.38864 16.6525L8.21168 13.8405L10.9822 16.6106C13.4444 19.0725 13.7896 19.399 14.085 19.5454L14.4173 19.71L15.869 19.727L17.3206 19.744L17.0141 20.0782C16.56 20.5734 16.4725 20.783 16.4725 21.3763C16.4725 21.8196 16.4861 21.8878 16.6236 22.136C16.8784 22.5955 17.3501 22.9146 17.8895 22.9924C18.1528 23.0303 18.6638 22.922 18.8975 22.7787C19.1065 22.6506 22.5933 19.1778 22.739 18.9526C22.914 18.6822 23.0326 18.1871 22.992 17.8957C22.9124 17.3226 22.7912 17.1731 20.8241 15.2194C18.7427 13.1523 18.7471 13.1556 18.0633 13.1517C17.5429 13.1487 17.2158 13.2843 16.8813 13.6417C16.5462 13.9995 16.4275 14.2905 16.424 14.7624C16.4203 15.2676 16.5719 15.5954 17.0368 16.0878L17.3829 16.4544H16.44H15.497L13.0212 13.9804L10.5454 11.5064L13.0216 9.03282L15.4979 6.55925H16.4404H17.3829L17.0368 6.92583C16.5719 7.41823 16.4203 7.74605 16.424 8.25116C16.4275 8.7231 16.5462 9.01411 16.8813 9.37192C17.2158 9.72927 17.5429 9.86488 18.0633 9.86191C18.7471 9.85801 18.7427 9.86134 20.8241 7.79419C22.7912 5.8405 22.9124 5.69099 22.992 5.1179C23.0326 4.82653 22.914 4.33141 22.739 4.06097C22.5937 3.83645 19.1067 0.363118 18.8985 0.235559C18.7336 0.134505 18.2255 -0.00479502 18.0397 0.0001269C17.968 0.00207516 17.8038 0.0320681 17.6748 0.0667778Z" fill="#252525" fill-opacity="0.31"/>
</svg>
