<svg width="16" height="19" viewBox="0 0 16 19" fill="none" xmlns="http://www.w3.org/2000/svg">
<path fill-rule="evenodd" clip-rule="evenodd" d="M7.2275 0.544987C6.26763 0.696005 5.41005 1.15113 4.73787 1.86626C4.00049 2.65075 3.61836 3.55665 3.56581 4.64476C3.49242 6.16451 4.2376 7.61731 5.52238 8.45935C6.15431 8.8735 6.76382 9.08379 7.50208 9.14233C8.87044 9.25082 10.0373 8.82038 10.9792 7.85958C11.7249 7.099 12.1062 6.27145 12.1991 5.21228C12.3231 3.79744 11.7912 2.47976 10.7248 1.56042C10.037 0.96747 9.40241 0.674617 8.52799 0.54657C8.1079 0.485044 7.61237 0.484446 7.2275 0.544987ZM4.03525 9.22109C2.44577 9.3891 1.34433 10.5306 0.830704 12.5421C0.488218 13.8835 0.400137 15.4953 0.62115 16.3765C0.798719 17.0844 1.38429 17.8028 2.06258 18.1448C2.3707 18.3002 2.81086 18.429 3.17788 18.4713C3.39534 18.4963 5.05536 18.5049 8.22923 18.4974L12.9567 18.4861L13.2554 18.4041C14.3646 18.0994 15.1258 17.3557 15.4028 16.3061C15.5471 15.7594 15.5286 14.4584 15.3619 13.4304C14.9914 11.1451 14.0566 9.7731 12.578 9.34425C12.2399 9.24621 11.635 9.17163 11.4557 9.20593C11.2842 9.23871 11.0444 9.36694 10.5032 9.71523C9.92661 10.0862 9.84669 10.1285 9.41492 10.2904C8.91487 10.4778 8.50219 10.5569 8.02322 10.557C7.52819 10.557 7.14965 10.4891 6.65036 10.3109C6.17888 10.1426 6.15846 10.1318 5.42214 9.66377C5.03385 9.41696 4.74659 9.25887 4.63242 9.22925C4.43732 9.1786 4.43735 9.1786 4.03525 9.22109Z" fill="white" fill-opacity="0.38"/>
</svg>
