<svg width="20" height="19" viewBox="0 0 20 19" fill="none" xmlns="http://www.w3.org/2000/svg">
<path d="M19.2484 1.07769L18.7129 0.572528C17.8239 -0.266218 16.4881 -0.172726 15.7033 0.782841L6.74463 11.6896L4.04042 9.13233C3.15243 8.29264 1.81642 8.38426 1.03067 9.33879L0.557172 9.91408C0.173186 10.3803 -0.026189 10.9954 0.00276495 11.6236C0.0320044 12.2515 0.287125 12.841 0.712423 13.2624L5.66938 18.2465C6.09855 18.689 6.67372 18.9198 7.26161 18.8856C7.84949 18.8514 8.39913 18.5548 8.78316 18.0649L19.4776 4.42112C19.8512 3.94444 20.037 3.32438 19.9939 2.69742C19.9509 2.07002 19.6828 1.48748 19.2484 1.07769Z" fill="#0FD682"/>
</svg>
