<svg width="20" height="20" viewBox="0 0 20 20" fill="none" xmlns="http://www.w3.org/2000/svg">
<path fill-rule="evenodd" clip-rule="evenodd" d="M19.3896 0.593001C18.5757 -0.19773 17.2561 -0.19773 16.4422 0.593001L9.88167 6.9668L3.55777 0.822892C2.74388 0.0321611 1.42429 0.0321616 0.610396 0.822893C-0.203499 1.61362 -0.203499 2.89565 0.610396 3.68638L6.93429 9.8303L0.610679 15.9739C-0.203217 16.7647 -0.203216 18.0467 0.610679 18.8374C1.42457 19.6282 2.74416 19.6282 3.55806 18.8374L9.88167 12.6938L16.4419 19.0673C17.2558 19.858 18.5754 19.858 19.3893 19.0673C20.2032 18.2766 20.2032 16.9946 19.3893 16.2038L12.829 9.8303L19.3896 3.45649C20.2035 2.66576 20.2035 1.38373 19.3896 0.593001Z" fill="#FF1F47"/>
</svg>
