<svg width="20" height="26" viewBox="0 0 20 26" fill="none" xmlns="http://www.w3.org/2000/svg">
<path fill-rule="evenodd" clip-rule="evenodd" d="M9.1146 0.030566C5.67203 0.4408 2.92532 2.97764 2.34435 6.28343C2.25675 6.78202 2.23977 7.108 2.23977 8.29219V9.7058H1.35177C0.659908 9.7058 0.43007 9.72277 0.31101 9.78265C-0.0198675 9.94909 0.000236011 9.48104 0.000236011 17.0175C0.000236011 21.4141 0.0190899 23.9748 0.0527349 24.1473C0.220543 25.0082 0.938443 25.7081 1.81717 25.8677C2.20216 25.9375 17.8001 25.9374 18.179 25.8675C19.0639 25.7043 19.7834 25.0059 19.9474 24.1511C19.9809 23.9767 19.9998 21.4005 19.9998 17.0175C19.9998 9.48104 20.0199 9.94909 19.689 9.78265C19.5699 9.72277 19.3401 9.7058 18.6482 9.7058H17.7602V8.29219C17.7602 7.108 17.7433 6.78202 17.6557 6.28343C17.2344 3.88617 15.675 1.86246 13.381 0.735974C12.9282 0.513605 11.9325 0.199483 11.3802 0.10479C10.8043 0.0059935 9.64048 -0.0321065 9.1146 0.030566ZM11.2239 3.39725C12.4437 3.74441 13.431 4.55773 13.9819 5.66932C14.3722 6.45686 14.3882 6.55155 14.4131 8.22385L14.4352 9.7058H10H5.56479L5.58688 8.22385C5.61177 6.55155 5.62776 6.45686 6.01812 5.66932C6.64706 4.40032 7.84005 3.52964 9.30523 3.27028C9.77001 3.18806 10.7066 3.25002 11.2239 3.39725ZM10.625 14.1249C11.6711 14.4301 12.3604 15.4864 12.1877 16.5191C12.1161 16.9466 11.8693 17.4201 11.5704 17.7033L11.3138 17.9465L11.4952 19.529C11.6931 21.2547 11.6907 21.3128 11.414 21.4956C11.2904 21.5772 11.1426 21.5867 10 21.5867C8.85742 21.5867 8.70956 21.5772 8.58602 21.4956C8.30926 21.3128 8.30686 21.2547 8.50477 19.529L8.68623 17.9465L8.42957 17.7033C7.96078 17.2591 7.71636 16.5476 7.81042 15.9013C7.99906 14.6055 9.34991 13.753 10.625 14.1249Z" fill="#FF9F47"/>
</svg>
