<svg width="24" height="21" viewBox="0 0 24 21" fill="none" xmlns="http://www.w3.org/2000/svg">
<path d="M23.5013 16.069L15.0233 1.59802C13.6612 -0.53126 10.3407 -0.534089 8.9767 1.59802L0.499073 16.069C-0.893396 18.2448 0.792464 21 3.52167 21H20.478C23.205 21 24.8938 18.247 23.5013 16.069ZM12 18.3885C11.2248 18.3885 10.5937 17.8026 10.5937 17.0828C10.5937 16.3629 11.2248 15.777 12 15.777C12.7752 15.777 13.4062 16.3629 13.4062 17.0828C13.4062 17.8026 12.7752 18.3885 12 18.3885ZM13.4062 13.1655C13.4062 13.8853 12.7752 14.4713 12 14.4713C11.2248 14.4713 10.5937 13.8853 10.5937 13.1655V6.63677C10.5937 5.91696 11.2248 5.33103 12 5.33103C12.7752 5.33103 13.4062 5.91696 13.4062 6.63677V13.1655Z" fill="#FFC700"/>
</svg>
