<svg width="26" height="24" viewBox="0 0 26 24" fill="none" xmlns="http://www.w3.org/2000/svg">
<path d="M11.771 0.0122277C10.2127 0.114453 8.83207 0.661357 7.63923 1.64272C7.31945 1.9085 6.4464 2.8592 4.46172 5.11326C2.95418 6.82042 1.59383 8.38446 1.43648 8.59913C0.654791 9.64694 0.213188 10.7919 0.0659867 12.1719L0 12.7546L0.39592 15.8316C1.02026 20.7077 0.994877 20.5748 1.31466 21.2699C2.00498 22.788 3.37548 23.7744 5.04545 23.9482C5.70024 24.0147 23.6588 24.0198 24.1207 23.9482C25.0344 23.8153 25.7957 23.0998 25.9582 22.2053C25.9937 22.0162 26.0039 18.7194 25.9988 12.3406L25.9835 2.76208L25.8465 2.3634C25.6333 1.7705 25.4201 1.42293 24.9887 0.993588C24.674 0.671579 24.5166 0.559132 24.1258 0.370015C23.8618 0.242234 23.537 0.109342 23.3948 0.0735627C23.1969 0.0224502 21.8771 0.00711642 17.5829 0.00200517C14.5272 -0.00310608 11.9131 0.00200517 11.771 0.0122277ZM22.6994 3.30899C22.7451 3.35499 22.7603 4.39768 22.7603 7.67911V11.9879H13.04C7.69507 11.9879 3.31964 11.9675 3.31964 11.947C3.31964 11.7886 3.57851 11.2008 3.77647 10.8941C4.10641 10.4085 9.40565 4.41302 9.78126 4.11145C10.3295 3.66677 11.0046 3.38054 11.6797 3.30388C11.8725 3.27832 14.4105 3.25787 17.3342 3.25276C21.4 3.24765 22.6538 3.26299 22.6994 3.30899ZM23.6791 15.4533C23.8872 15.6884 23.8821 15.9593 23.6689 16.174L23.5116 16.3325H19.8772L19.7199 16.1996C19.527 16.036 19.4712 15.7907 19.5828 15.5709C19.7453 15.2642 19.7605 15.2591 21.735 15.2744L23.5319 15.2847L23.6791 15.4533ZM23.6791 18.7245C23.8872 18.9596 23.8821 19.2305 23.6689 19.4452L23.5116 19.6037H3.63435L3.47699 19.4708C3.28411 19.3072 3.22827 19.0619 3.33994 18.8421C3.51252 18.5099 2.70546 18.5354 13.6136 18.5456L23.5319 18.5559L23.6791 18.7245Z" fill="#D5D4D2"/>
<path d="M10.5427 4.9957C10.1925 5.34326 9.87775 5.69083 9.83207 5.77261C9.65949 6.10995 9.93359 6.51885 10.3346 6.51885C10.5376 6.51885 10.5732 6.48818 11.2127 5.83906C11.6239 5.43015 11.8929 5.11326 11.9081 5.03659C11.969 4.6788 11.7254 4.37213 11.3751 4.37213C11.1823 4.37213 11.1366 4.4079 10.5427 4.9957Z" fill="#D5D4D2"/>
<path d="M13.1872 4.52038C13.0806 4.60216 12.2786 5.3893 11.4056 6.26843C10.0655 7.63314 9.8219 7.89892 9.79145 8.05737C9.72039 8.43561 10.0452 8.76272 10.4209 8.69117C10.5782 8.6605 10.8422 8.41516 12.1974 7.06579C13.0705 6.18665 13.8522 5.37907 13.9334 5.27174C14.1364 4.99573 14.1364 4.74017 13.9232 4.53061C13.7151 4.31593 13.4613 4.31593 13.1872 4.52038Z" fill="#D5D4D2"/>
</svg>
