<svg width="31" height="29" viewBox="0 0 31 29" fill="none" xmlns="http://www.w3.org/2000/svg">
<path d="M11.4205 16.6688L12.0267 19.9313C12.8213 18.803 14.1173 18.1312 15.5001 18.1312C16.8833 18.1312 18.1793 18.8031 18.9738 19.9313L19.58 16.6688L15.4942 15.1462L11.4205 16.6688Z" fill="url(#paint0_linear_14_1312)"/>
<path d="M12.4632 22.3542C12.4632 23.1553 12.7825 23.9236 13.3508 24.4904C13.9193 25.0568 14.6903 25.375 15.4941 25.375C16.2979 25.375 17.0688 25.0567 17.6374 24.4904C18.2057 23.9237 18.525 23.1553 18.525 22.3542C18.525 21.5531 18.2057 20.7847 17.6374 20.218C17.0689 19.6516 16.2979 19.3333 15.4941 19.3333C14.6903 19.3333 13.9194 19.6516 13.3508 20.218C12.7825 20.7846 12.4632 21.5531 12.4632 22.3542ZM16.7065 22.3542C16.7065 22.6746 16.5787 22.9821 16.3514 23.2086C16.1241 23.4352 15.8156 23.5625 15.4941 23.5625C15.1726 23.5625 14.8641 23.4352 14.6368 23.2086C14.4095 22.9821 14.2817 22.6746 14.2817 22.3542C14.2817 22.0337 14.4095 21.7263 14.6368 21.4997C14.8641 21.2731 15.1726 21.1458 15.4941 21.1458C15.8156 21.1458 16.1241 21.2731 16.3514 21.4997C16.5787 21.7263 16.7065 22.0337 16.7065 22.3542Z" fill="url(#paint1_linear_14_1312)"/>
<path d="M20.5618 11.2313C20.0255 11.7521 19.4122 12.1879 18.7433 12.5241L20.2466 13.0678L20.5859 11.2192L20.5618 11.2313Z" fill="url(#paint2_linear_14_1312)"/>
<path d="M9.7232 16.0108H9.72942L10.0385 15.8959L9.82035 14.6937L5.69827 16.1861L6.11638 17.3218L9.7232 16.0108Z" fill="url(#paint3_linear_14_1312)"/>
<path d="M20.9498 15.8955L21.2588 16.0104H21.2651L24.8719 17.3214L25.29 16.1857L21.1741 14.6933L20.9498 15.8955Z" fill="url(#paint4_linear_14_1312)"/>
<path d="M10.4382 11.2437C10.4284 11.2464 10.4179 11.2464 10.4078 11.2437L10.7472 13.0923L12.2505 12.5486C11.5842 12.2063 10.9737 11.7667 10.4382 11.2437Z" fill="url(#paint5_linear_14_1312)"/>
<path d="M14.0753 14.3854L13.6753 13.2919L10.9719 14.2708L11.1959 15.461L14.0753 14.3854Z" fill="url(#paint6_linear_14_1312)"/>
<path d="M19.7922 15.4605L20.0162 14.2702L17.3128 13.2914L16.9128 14.3848L19.7922 15.4605Z" fill="url(#paint7_linear_14_1312)"/>
<path d="M21.495 1.95764L30.5878 5.24444L31 4.10868L20.7371 0.386872L20.5674 0.852136C20.9122 1.18955 21.223 1.55951 21.495 1.95764Z" fill="url(#paint8_linear_14_1312)"/>
<path d="M20.7253 17.0976L19.8585 21.7497H25.5992L24.6958 18.5837L20.7253 17.0976Z" fill="url(#paint9_linear_14_1312)"/>
<path d="M15.4941 26.5833C14.4736 26.5836 13.4872 26.2173 12.7157 25.5514C11.9439 24.8858 11.4392 23.9652 11.2933 22.9583H7.00754V26.7344L9.28071 29H21.7079L23.9811 26.7344V22.9583H19.6953C19.5494 23.9652 19.0447 24.8857 18.2729 25.5514C17.5014 26.2173 16.5146 26.5836 15.4941 26.5833Z" fill="url(#paint10_linear_14_1312)"/>
<path d="M11.1296 21.75L10.2627 17.0979L6.29224 18.584L5.38892 21.75H11.1296Z" fill="url(#paint11_linear_14_1312)"/>
<path d="M22.7199 5.22L26.8904 6.73042C27.1669 6.83021 27.3315 7.11369 27.2806 7.40255C27.23 7.69142 26.9783 7.90207 26.6842 7.90234C26.6141 7.90234 26.5442 7.88993 26.4782 7.8662L22.7683 6.51273C22.722 7.20186 22.5791 7.88097 22.3439 8.53078L25.7024 9.73911C25.9787 9.83918 26.1432 10.1224 26.0926 10.4113C26.0417 10.7001 25.7903 10.9108 25.4961 10.911C25.4258 10.911 25.3562 10.8989 25.2899 10.8749L22.1134 9.72104L21.4163 13.4728L25.7262 15.0377L29.048 5.97521L22.3375 3.55854C22.528 4.09582 22.6565 4.65333 22.7199 5.22Z" fill="url(#paint12_linear_14_1312)"/>
<path d="M9.59573 13.485L5.28583 15.0499L1.96399 5.98739L8.67453 3.57073C8.47102 4.11421 8.33436 4.68005 8.26806 5.25619L4.09755 6.7666C3.82098 6.86667 3.65644 7.15014 3.70732 7.43874C3.75793 7.72761 4.0096 7.93826 4.30377 7.9388C4.37386 7.93853 4.44368 7.92639 4.50971 7.90238L8.21965 6.5128C8.26593 7.20247 8.41071 7.88188 8.64994 8.53086L5.29151 9.73919C5.01494 9.83925 4.85067 10.1225 4.90155 10.4113C4.95216 10.7002 5.20357 10.9108 5.49773 10.9111C5.56809 10.9111 5.63791 10.899 5.70395 10.875L8.88051 9.72112L9.2564 11.7631L6.52232 12.7721C6.24575 12.8719 6.08121 13.1554 6.13209 13.4443C6.18269 13.7331 6.43437 13.9438 6.72853 13.944C6.79862 13.944 6.86844 13.9316 6.93448 13.9079L9.49862 12.9774L9.59573 13.485Z" fill="url(#paint13_linear_14_1312)"/>
<path d="M9.43223 6.04167C9.43223 7.64405 10.0709 9.18064 11.2078 10.3137C12.3446 11.4468 13.8864 12.0833 15.4941 12.0833C17.1019 12.0833 18.6436 11.4468 19.7804 10.3137C20.9173 9.18063 21.556 7.64405 21.556 6.04167C21.556 4.43928 20.9173 2.90269 19.7804 1.76962C18.6436 0.63655 17.1019 0 15.4941 0C13.8864 0 12.3446 0.636536 11.2078 1.76962C10.0709 2.90271 9.43223 4.43928 9.43223 6.04167ZM15.4941 4.83333C15.8156 4.83333 16.1241 4.96064 16.3514 5.1872C16.5787 5.41376 16.7065 5.72124 16.7065 6.04167C16.7065 6.36209 16.5787 6.66957 16.3514 6.89613C16.1241 7.12269 15.8156 7.25 15.4941 7.25C15.1726 7.25 14.8641 7.12269 14.6368 6.89613C14.4095 6.66957 14.2817 6.36209 14.2817 6.04167C14.2817 5.72124 14.4095 5.41376 14.6368 5.1872C14.8641 4.96064 15.1726 4.83333 15.4941 4.83333Z" fill="url(#paint14_linear_14_1312)"/>
<path d="M10.4201 0.851771L10.2505 0.386508L0 4.10831L0.412153 5.24408L9.50497 1.95727C9.77316 1.55971 10.0797 1.18976 10.4201 0.851771Z" fill="url(#paint15_linear_14_1312)"/>
<defs>
<linearGradient id="paint0_linear_14_1312" x1="15.5" y1="0" x2="15.5" y2="29" gradientUnits="userSpaceOnUse">
<stop offset="0.676983" stop-color="white" stop-opacity="0.569231"/>
<stop offset="0.677083" stop-color="#FF3E3E"/>
<stop offset="1" stop-color="#FF3E3E"/>
</linearGradient>
<linearGradient id="paint1_linear_14_1312" x1="15.5" y1="0" x2="15.5" y2="29" gradientUnits="userSpaceOnUse">
<stop offset="0.676983" stop-color="white" stop-opacity="0.569231"/>
<stop offset="0.677083" stop-color="#FF3E3E"/>
<stop offset="1" stop-color="#FF3E3E"/>
</linearGradient>
<linearGradient id="paint2_linear_14_1312" x1="15.5" y1="0" x2="15.5" y2="29" gradientUnits="userSpaceOnUse">
<stop offset="0.676983" stop-color="white" stop-opacity="0.569231"/>
<stop offset="0.677083" stop-color="#FF3E3E"/>
<stop offset="1" stop-color="#FF3E3E"/>
</linearGradient>
<linearGradient id="paint3_linear_14_1312" x1="15.5" y1="0" x2="15.5" y2="29" gradientUnits="userSpaceOnUse">
<stop offset="0.676983" stop-color="white" stop-opacity="0.569231"/>
<stop offset="0.677083" stop-color="#FF3E3E"/>
<stop offset="1" stop-color="#FF3E3E"/>
</linearGradient>
<linearGradient id="paint4_linear_14_1312" x1="15.5" y1="0" x2="15.5" y2="29" gradientUnits="userSpaceOnUse">
<stop offset="0.676983" stop-color="white" stop-opacity="0.569231"/>
<stop offset="0.677083" stop-color="#FF3E3E"/>
<stop offset="1" stop-color="#FF3E3E"/>
</linearGradient>
<linearGradient id="paint5_linear_14_1312" x1="15.5" y1="0" x2="15.5" y2="29" gradientUnits="userSpaceOnUse">
<stop offset="0.676983" stop-color="white" stop-opacity="0.569231"/>
<stop offset="0.677083" stop-color="#FF3E3E"/>
<stop offset="1" stop-color="#FF3E3E"/>
</linearGradient>
<linearGradient id="paint6_linear_14_1312" x1="15.5" y1="0" x2="15.5" y2="29" gradientUnits="userSpaceOnUse">
<stop offset="0.676983" stop-color="white" stop-opacity="0.569231"/>
<stop offset="0.677083" stop-color="#FF3E3E"/>
<stop offset="1" stop-color="#FF3E3E"/>
</linearGradient>
<linearGradient id="paint7_linear_14_1312" x1="15.5" y1="0" x2="15.5" y2="29" gradientUnits="userSpaceOnUse">
<stop offset="0.676983" stop-color="white" stop-opacity="0.569231"/>
<stop offset="0.677083" stop-color="#FF3E3E"/>
<stop offset="1" stop-color="#FF3E3E"/>
</linearGradient>
<linearGradient id="paint8_linear_14_1312" x1="15.5" y1="0" x2="15.5" y2="29" gradientUnits="userSpaceOnUse">
<stop offset="0.676983" stop-color="white" stop-opacity="0.569231"/>
<stop offset="0.677083" stop-color="#FF3E3E"/>
<stop offset="1" stop-color="#FF3E3E"/>
</linearGradient>
<linearGradient id="paint9_linear_14_1312" x1="15.5" y1="0" x2="15.5" y2="29" gradientUnits="userSpaceOnUse">
<stop offset="0.676983" stop-color="white" stop-opacity="0.569231"/>
<stop offset="0.677083" stop-color="#FF3E3E"/>
<stop offset="1" stop-color="#FF3E3E"/>
</linearGradient>
<linearGradient id="paint10_linear_14_1312" x1="15.5" y1="0" x2="15.5" y2="29" gradientUnits="userSpaceOnUse">
<stop offset="0.676983" stop-color="white" stop-opacity="0.569231"/>
<stop offset="0.677083" stop-color="#FF3E3E"/>
<stop offset="1" stop-color="#FF3E3E"/>
</linearGradient>
<linearGradient id="paint11_linear_14_1312" x1="15.5" y1="0" x2="15.5" y2="29" gradientUnits="userSpaceOnUse">
<stop offset="0.676983" stop-color="white" stop-opacity="0.569231"/>
<stop offset="0.677083" stop-color="#FF3E3E"/>
<stop offset="1" stop-color="#FF3E3E"/>
</linearGradient>
<linearGradient id="paint12_linear_14_1312" x1="15.5" y1="0" x2="15.5" y2="29" gradientUnits="userSpaceOnUse">
<stop offset="0.676983" stop-color="white" stop-opacity="0.569231"/>
<stop offset="0.677083" stop-color="#FF3E3E"/>
<stop offset="1" stop-color="#FF3E3E"/>
</linearGradient>
<linearGradient id="paint13_linear_14_1312" x1="15.5" y1="0" x2="15.5" y2="29" gradientUnits="userSpaceOnUse">
<stop offset="0.676983" stop-color="white" stop-opacity="0.569231"/>
<stop offset="0.677083" stop-color="#FF3E3E"/>
<stop offset="1" stop-color="#FF3E3E"/>
</linearGradient>
<linearGradient id="paint14_linear_14_1312" x1="15.5" y1="0" x2="15.5" y2="29" gradientUnits="userSpaceOnUse">
<stop offset="0.676983" stop-color="white" stop-opacity="0.569231"/>
<stop offset="0.677083" stop-color="#FF3E3E"/>
<stop offset="1" stop-color="#FF3E3E"/>
</linearGradient>
<linearGradient id="paint15_linear_14_1312" x1="15.5" y1="0" x2="15.5" y2="29" gradientUnits="userSpaceOnUse">
<stop offset="0.676983" stop-color="white" stop-opacity="0.569231"/>
<stop offset="0.677083" stop-color="#FF3E3E"/>
<stop offset="1" stop-color="#FF3E3E"/>
</linearGradient>
</defs>
</svg>
