<svg width="26" height="29" viewBox="0 0 26 29" fill="none" xmlns="http://www.w3.org/2000/svg">
<path d="M20.5332 1.64248C19.0408 0.564602 17.5484 0.667257 17.5484 0.667257L22.7975 7.03186C22.7975 7.03186 22.0256 9.64956 23.518 10.3681V22.5841C23.518 23.6106 22.9519 24.4832 22.2829 24.4832H21.2537C20.5846 24.4832 20.0186 23.6106 20.0186 22.5841V15.3982C20.0186 13.4991 18.835 11.908 17.2911 11.6V2.56637C17.2911 1.1292 16.1075 0 14.718 0H3.91108C2.47016 0 1.338 1.18053 1.338 2.56637V25.9204C1.338 25.9717 1.338 26.023 1.338 26.0743C0.566078 26.485 0 27.2549 0 28.1788V29H18.3718V28.1788C18.3718 27.3575 17.9601 26.6389 17.2911 26.177C17.2911 26.0743 17.3426 25.9717 17.3426 25.9204V13.7044C17.7543 14.0124 18.1145 14.6796 18.1145 15.4496V22.6354C18.1145 24.7398 19.5554 26.485 21.3051 26.485H22.3343C24.084 26.485 25.525 24.7398 25.525 22.6354V10.0602C26.6057 8.87965 26.194 5.69735 20.5332 1.64248ZM14.3063 11.6513C14.3063 12.0106 13.9976 12.3186 13.6373 12.3186H4.88885C4.52862 12.3186 4.21985 12.0106 4.21985 11.6513V3.59292C4.21985 3.23363 4.52862 2.92566 4.88885 2.92566H13.6888C14.049 2.92566 14.3578 3.23363 14.3578 3.59292V11.6513H14.3063Z" fill="#1DB854"/>
</svg>
