<svg width="26" height="22" viewBox="0 0 26 22" fill="none" xmlns="http://www.w3.org/2000/svg">
<path d="M10.7224 1.50169C13.0539 3.13421 13.9671 6.03431 13.201 8.63314L25.3461 17.1372L25.9735 20.7504L22.3634 21.3969L21.3128 17.4869L19.3587 18.023L19.1942 16.0034L17.2401 16.5395L17.0756 14.5199L15.1215 15.0561L14.9573 13.0367L13.053 13.5018L10.8901 11.9873C8.70486 13.6485 5.62312 13.8012 3.26517 12.1501C0.340504 10.1023 -0.361814 6.05776 1.69732 3.117C3.75646 0.176249 7.79738 -0.546445 10.7224 1.50169ZM3.70613 6.11076C4.29136 6.52055 5.09919 6.37587 5.51118 5.78749C5.9229 5.19949 5.78282 4.39052 5.19759 3.98074C4.61273 3.57122 3.80426 3.71601 3.39254 4.30401C2.98055 4.89239 3.12127 5.70124 3.70613 6.11076Z" fill="#D5D4D2"/>
</svg>
