<svg width="30" height="24" viewBox="0 0 30 24" fill="none" xmlns="http://www.w3.org/2000/svg">
<path d="M17.9597 0C14.6546 0 12.2559 5.04674 12.2559 12C12.2559 19.6261 14.3348 24 17.9597 24C24.5986 24 30 18.6171 30 12C30 5.38292 24.599 0 17.9597 0ZM17.9597 22.6624C15.2286 22.6624 13.598 18.6768 13.598 12C13.598 6.12038 15.5547 1.33759 17.9597 1.33759C23.8586 1.33759 28.6579 6.12083 28.6579 12C28.6579 17.8792 23.8591 22.6624 17.9597 22.6624Z" fill="#D5D4D2"/>
<path d="M9.69163 1.44485H0.671042C0.300179 1.44485 0 1.74447 0 2.11365C0 2.48283 0.300179 2.78245 0.671042 2.78245H9.69163C10.0625 2.78245 10.3627 2.48283 10.3627 2.11365C10.3627 1.74447 10.062 1.44485 9.69163 1.44485Z" fill="#D5D4D2"/>
<path d="M9.69163 8.04044H0.671042C0.300179 8.04044 0 8.34006 0 8.70924C0 9.07841 0.300179 9.37804 0.671042 9.37804H9.69163C10.0625 9.37804 10.3627 9.07841 10.3627 8.70924C10.3627 8.34006 10.062 8.04044 9.69163 8.04044Z" fill="#D5D4D2"/>
<path d="M9.69163 14.6305H0.671042C0.300179 14.6305 0 14.9301 0 15.2993C0 15.6685 0.300179 15.9681 0.671042 15.9681H9.69163C10.0625 15.9681 10.3627 15.6685 10.3627 15.2993C10.3627 14.9301 10.062 14.6305 9.69163 14.6305Z" fill="#D5D4D2"/>
<path d="M9.69163 21.2261H0.671042C0.300179 21.2261 0 21.5257 0 21.8949C0 22.2641 0.300179 22.5637 0.671042 22.5637H9.69163C10.0625 22.5637 10.3627 22.2641 10.3627 21.8949C10.3627 21.5257 10.062 21.2261 9.69163 21.2261Z" fill="#D5D4D2"/>
<path d="M29.0789 12.4882C29.0789 18.1518 23.4839 23.189 18.7896 23.189C14.0952 23.189 13.1976 18.1518 13.1976 12.4882C13.1976 6.82459 14.0952 0.672794 18.7896 0.672794C23.4839 0.672794 29.0789 6.82459 29.0789 12.4882Z" fill="#D5D4D2"/>
</svg>
