<svg width="23" height="26" viewBox="0 0 23 26" fill="none" xmlns="http://www.w3.org/2000/svg">
<path d="M12.3232 6.96978C14.4619 6.96978 16.1956 5.40954 16.1956 3.48489C16.1956 1.56024 14.4619 0 12.3232 0C10.1845 0 8.45074 1.56024 8.45074 3.48489C8.45074 5.40954 10.1845 6.96978 12.3232 6.96978Z" fill="#D5D4D2"/>
<path d="M16.6852 8.69689C13.0799 11.0602 10.1421 13.5437 7.8721 15.6266C12.0116 15.3462 16.2846 15.6667 18.9998 15.9871C19.1778 15.3863 19.3114 14.7454 19.3114 14.0644C19.3114 11.8613 18.2876 9.93863 16.6852 8.69689Z" fill="#D5D4D2"/>
<path d="M5.33452 14.0633C5.33452 14.2636 5.33452 14.4638 5.37903 14.6641C7.60457 12.5011 10.5868 9.97755 14.2367 7.45401C13.6135 7.29378 12.9904 7.17361 12.3227 7.17361C8.49479 7.17361 5.33452 10.2579 5.33452 14.0633Z" fill="#D5D4D2"/>
<path d="M7.51564 17.9487C7.07053 17.9888 6.66994 17.8285 6.40287 17.5481C6.58091 17.7885 6.75896 18.0288 6.98151 18.2692C6.937 18.3092 6.937 18.3092 6.89249 18.3493C6.22483 19.1103 6.00228 20.1518 6.26934 21.4336C6.71445 23.4765 8.62841 25.319 8.80645 25.5193C9.11803 25.8398 9.60765 26 10.0528 26C10.4534 26 10.8985 25.8798 11.21 25.5994C11.8777 25.0387 11.9222 24.0372 11.2545 23.4364C10.8985 23.0759 9.78569 21.8742 9.56314 20.8327C9.51863 20.5924 9.51863 20.4322 9.51863 20.312C9.74118 20.272 10.1863 20.272 10.4088 20.272C10.7204 20.272 11.9222 20.312 12.2783 20.312C12.6344 20.312 13.7917 20.272 14.1477 20.272C14.3703 20.272 14.8154 20.272 15.038 20.312C15.038 20.3921 15.038 20.5524 14.9935 20.8327C14.7709 21.8342 13.7026 23.0358 13.302 23.4364C12.6789 24.0372 12.6789 24.9986 13.3466 25.5994C13.6581 25.8798 14.1032 26 14.5038 26C14.9489 26 15.394 25.8398 15.7501 25.5193C15.9727 25.319 17.8421 23.4765 18.2872 21.4336C18.5543 20.1518 18.3763 19.1103 17.6641 18.3493C17.6196 18.3092 17.6196 18.3092 17.5751 18.2692C17.6196 18.2291 17.6196 18.189 17.6641 18.189C14.9935 17.8686 11.121 17.6683 7.51564 17.9487Z" fill="#D5D4D2"/>
<path d="M22.0711 4.12226C21.715 3.56147 20.9138 3.40125 20.3351 3.7217C18.1096 4.92338 16.1066 6.16512 14.2372 7.44692C15.1274 7.68726 15.9731 8.12788 16.6852 8.68867C18.2431 7.68726 19.89 6.6458 21.6705 5.68445C22.2491 5.364 22.4271 4.64299 22.0711 4.12226Z" fill="#D5D4D2"/>
<path d="M0.572135 21.9549C0.794689 22.075 1.01724 22.1551 1.28431 22.1551C1.6849 22.1551 2.0855 21.9549 2.35257 21.6344C2.39708 21.5944 3.68789 19.8319 6.225 17.2683C5.77989 16.5072 5.46832 15.666 5.3793 14.7047C2.0855 17.8691 0.349581 20.1924 0.216049 20.3927C-0.184548 20.8733 -0.00650535 21.5944 0.572135 21.9549Z" fill="#D5D4D2"/>
<path d="M21.9815 16.3442C21.848 16.3442 20.7352 16.1439 18.9993 15.9436C18.7322 16.7848 18.2871 17.5058 17.7085 18.1067C19.9785 18.3069 21.4919 18.5473 21.4919 18.5873C21.5809 18.5873 21.6254 18.5873 21.7144 18.5873C22.3376 18.5873 22.8717 18.1868 22.9607 17.666C23.1388 17.0652 22.6937 16.4644 21.9815 16.3442Z" fill="#D5D4D2"/>
</svg>
