<svg width="30" height="24" viewBox="0 0 30 24" fill="none" xmlns="http://www.w3.org/2000/svg">
<path d="M18.0365 0C14.7525 0 12.3691 4.95425 12.3691 11.7801C12.3691 19.2664 14.4347 23.5602 18.0365 23.5602C24.6335 23.5602 30 18.2759 30 11.7801C30 5.28427 24.6335 0 18.0365 0ZM18.0365 22.2471C15.3228 22.2471 13.7026 18.3345 13.7026 11.7801C13.7026 6.00822 15.6469 1.31308 18.0365 1.31308C23.8983 1.31308 28.6665 6.00866 28.6665 11.7801C28.6665 17.5515 23.8983 22.2471 18.0365 22.2471Z" fill="#D5D4D2"/>
<path d="M29.1152 12.4757C29.1152 18.0355 23.5559 22.9804 18.8915 22.9804C14.2271 22.9804 13.3352 18.0355 13.3352 12.4757C13.3352 6.91589 14.2271 0.87684 18.8915 0.87684C23.5559 0.87684 29.1152 6.91589 29.1152 12.4757Z" fill="#D5D4D2"/>
<path d="M9.45994 2.18944L0.496898 4.51578C0.140848 4.60813 -0.0716261 4.96704 0.0221649 5.31807C0.101287 5.61264 0.371102 5.80697 0.6667 5.80697C0.722708 5.80697 0.78005 5.79997 0.836946 5.78509L9.79999 3.45875C10.156 3.36639 10.3685 3.00749 10.2747 2.65646C10.1809 2.30586 9.81599 2.09621 9.45994 2.18944Z" fill="#D5D4D2"/>
<path d="M9.45994 8.25023L0.496898 10.5761C0.140848 10.6685 -0.0716261 11.0274 0.0221649 11.378C0.101287 11.673 0.371102 11.8673 0.6667 11.8673C0.722708 11.8673 0.78005 11.8603 0.836946 11.8454L9.79999 9.51954C10.156 9.42719 10.3685 9.06828 10.2747 8.71769C10.1809 8.3671 9.81599 8.15657 9.45994 8.25023Z" fill="#D5D4D2"/>
<path d="M9.46019 14.3161L0.497596 16.6429C0.141546 16.7353 -0.0709286 17.0942 0.0228624 17.4452C0.101985 17.7398 0.371801 17.9341 0.667398 17.9341C0.723406 17.9341 0.780747 17.9271 0.837644 17.9122L9.80068 15.5859C10.1567 15.4935 10.3692 15.1346 10.2754 14.7836C10.1812 14.433 9.81624 14.2233 9.46019 14.3161Z" fill="#D5D4D2"/>
<path d="M9.45994 20.3825L0.496898 22.7088C0.140848 22.8012 -0.0716261 23.1601 0.0221649 23.5111C0.101287 23.8057 0.371102 24 0.6667 24C0.722708 24 0.78005 23.993 0.836946 23.9781L9.79999 21.6518C10.156 21.5594 10.3685 21.2005 10.2747 20.8495C10.1809 20.4993 9.81599 20.2892 9.45994 20.3825Z" fill="#D5D4D2"/>
</svg>
