<svg width="18" height="18" viewBox="0 0 18 18" fill="none" xmlns="http://www.w3.org/2000/svg">
<path opacity="0.8" d="M14.261 14.7622C13.9167 14.3541 10.8515 11.1619 8.522 9.03858C8.03777 8.57837 7.66836 8.00467 7.44508 7.36609C7.2218 6.7275 7.15122 6.04287 7.23934 5.37021C7.29103 4.81256 7.21466 4.2502 7.01642 3.72858C6.81817 3.20696 6.50361 2.74071 6.09815 2.3675C4.32035 0.564896 1.92479 -0.0327322 0.750589 0.997326C-0.423611 2.02738 -0.192543 4.57338 1.25045 6.64321C1.54666 7.11924 1.94807 7.51623 2.42182 7.80167C2.89557 8.08712 3.4282 8.25291 3.9761 8.28547C4.63781 8.29031 5.28851 8.46038 5.87245 8.7811C6.45639 9.10181 6.95616 9.56362 7.32894 10.1269C9.03129 12.8041 11.6485 16.3947 11.9974 16.8077C12.1227 16.9728 12.2791 17.1099 12.4574 17.2107C12.6356 17.3116 12.8319 17.374 13.0343 17.3942C13.2366 17.4144 13.4409 17.392 13.6346 17.3284C13.8283 17.2647 14.0075 17.1611 14.1611 17.0239C14.3148 16.8867 14.4397 16.7187 14.5284 16.5302C14.6171 16.3417 14.6677 16.1366 14.677 15.9273C14.6863 15.718 14.6543 15.509 14.5828 15.3128C14.5112 15.1167 14.4018 14.9377 14.261 14.7865V14.7622Z" fill="white"/>
<path opacity="0.8" d="M17.1281 3.36357C17.0839 3.31425 17.0303 3.27489 16.9707 3.24797C16.911 3.22105 16.8466 3.20715 16.7815 3.20715C16.7164 3.20715 16.6519 3.22105 16.5923 3.24797C16.5326 3.27489 16.479 3.31425 16.4349 3.36357L13.846 6.21567C13.739 6.33357 13.591 6.40289 13.4345 6.40835C13.278 6.41382 13.1257 6.355 13.0113 6.24482C12.8969 6.13464 12.8296 5.98214 12.8243 5.82086C12.819 5.65957 12.8761 5.50273 12.983 5.38482L15.4965 2.61532C15.5513 2.55599 15.594 2.48602 15.6223 2.40947C15.6506 2.33293 15.6638 2.25135 15.6612 2.1695C15.6585 2.08764 15.6401 2.00714 15.607 1.9327C15.5738 1.85825 15.5267 1.79135 15.4682 1.73589C15.4104 1.68047 15.3425 1.63738 15.2685 1.60908C15.1945 1.58078 15.1158 1.56784 15.0369 1.571C14.958 1.57416 14.8805 1.59336 14.8088 1.6275C14.7372 1.66163 14.6728 1.71003 14.6193 1.7699L12.1059 4.55883C11.9978 4.669 11.8526 4.73189 11.7006 4.73435C11.5486 4.73682 11.4015 4.67867 11.2901 4.57205C11.1787 4.46544 11.1116 4.3186 11.1028 4.16222C11.0941 4.00584 11.1442 3.852 11.2429 3.73284L13.8318 0.880745C13.9238 0.784743 13.9749 0.655048 13.974 0.520191C13.9731 0.385334 13.9203 0.256363 13.8271 0.161649C13.7339 0.0669349 13.6081 0.0142371 13.4772 0.0151483C13.3463 0.0160595 13.2211 0.0705051 13.1292 0.166508L9.89896 3.39758C9.55092 3.74297 9.28479 4.16634 9.12123 4.63484C8.95766 5.10334 8.90107 5.60437 8.95583 6.09906C9.00741 6.5725 8.95751 7.05184 8.80965 7.50324C8.93673 7.72866 9.09566 7.93335 9.28121 8.11058C9.58773 8.38753 9.90368 8.68878 10.2243 8.99974C10.6684 8.79457 11.1529 8.6997 11.639 8.72279C12.1239 8.7494 12.6081 8.66019 13.0539 8.46212C13.4997 8.26405 13.8951 7.96249 14.2091 7.58098L17.1139 4.0438C17.2022 3.9549 17.2532 3.83385 17.2558 3.70666C17.2585 3.57948 17.2126 3.45629 17.1281 3.36357ZM6.16887 10.5254C4.17886 12.3523 1.88233 14.4658 1.6607 14.7185C1.41027 15.021 1.28262 15.4112 1.30431 15.8082C1.326 16.2051 1.49536 16.5781 1.77716 16.8497C2.05895 17.1213 2.43151 17.2705 2.81734 17.2663C3.20317 17.2621 3.57259 17.1048 3.84877 16.8272C4.06569 16.5891 5.76333 14.3492 7.32893 12.2745C6.97997 11.7547 6.64515 11.2445 6.34335 10.7635C6.28937 10.6809 6.23113 10.6015 6.16887 10.5254Z" fill="white"/>
</svg>
