<svg width="23" height="42" viewBox="0 0 23 42" fill="none" xmlns="http://www.w3.org/2000/svg">
<g opacity="0.5">
<path d="M22.2812 20.125C21.8845 20.125 21.5625 20.4463 21.5625 20.8437V25.1562C21.5625 30.705 17.0487 35.2187 11.5 35.2187C5.95125 35.2187 1.4375 30.705 1.4375 25.1562V20.8437C1.4375 20.4463 1.1155 20.125 0.71875 20.125C0.322 20.125 0 20.4463 0 20.8437V25.1562C0 31.2548 4.77537 36.2458 10.7812 36.6196V40.25H7.1875C6.79075 40.25 6.46875 40.5713 6.46875 40.9687C6.46875 41.3662 6.79075 41.6875 7.1875 41.6875H15.8125C16.2092 41.6875 16.5312 41.3662 16.5312 40.9687C16.5312 40.5713 16.2092 40.25 15.8125 40.25H12.2188V36.6196C18.2246 36.2458 23 31.2541 23 25.1562V20.8437C23 20.4463 22.678 20.125 22.2812 20.125Z" fill="white"/>
<path d="M11.5 33.0625C15.8592 33.0625 19.4063 29.5155 19.4063 25.1562V7.90625C19.4063 3.54703 15.8592 0 11.5 0C7.14078 0 3.59375 3.54703 3.59375 7.90625V25.1562C3.59375 29.5155 7.14078 33.0625 11.5 33.0625Z" fill="white"/>
</g>
</svg>
