<svg width="17" height="14" viewBox="0 0 17 14" fill="none" xmlns="http://www.w3.org/2000/svg">
<g opacity="0.8">
<path d="M13.0156 9.10937C11.9807 9.10937 11.1406 8.25954 11.1565 7.22111C11.172 6.20088 12.0235 5.39062 13.0438 5.39062H16.834C16.9256 5.39062 17 5.31628 17 5.22461V3.13281C17 1.73914 15.8702 0.609375 14.4766 0.609375H2.52344C1.12977 0.609375 0 1.73914 0 3.13281V11.3672C0 12.7608 1.12977 13.8906 2.52344 13.8906H14.4766C15.8702 13.8906 17 12.7608 17 11.3672V9.27538C17 9.18371 16.9256 9.10937 16.834 9.10937H13.0156Z" fill="white"/>
<path d="M13.0156 9.10937C11.9807 9.10937 11.1406 8.25954 11.1565 7.22111C11.172 6.20088 12.0235 5.39062 13.0438 5.39062H16.834C16.9256 5.39062 17 5.31628 17 5.22461V3.13281C17 1.73914 15.8702 0.609375 14.4766 0.609375H2.52344C1.12977 0.609375 0 1.73914 0 3.13281V11.3672C0 12.7608 1.12977 13.8906 2.52344 13.8906H14.4766C15.8702 13.8906 17 12.7608 17 11.3672V9.27538C17 9.18371 16.9256 9.10937 16.834 9.10937H13.0156Z" fill="url(#paint0_linear_121_773)"/>
<path d="M12.2189 7.23632C12.2113 7.68207 12.5879 8.04687 13.0337 8.04687H16.834C16.9256 8.04687 17 7.97253 17 7.88086V6.61914C17 6.52747 16.9256 6.45312 16.834 6.45312H13.0156C12.5808 6.45312 12.2262 6.80319 12.2189 7.23632Z" fill="white"/>
<path d="M12.2189 7.23632C12.2113 7.68207 12.5879 8.04687 13.0337 8.04687H16.834C16.9256 8.04687 17 7.97253 17 7.88086V6.61914C17 6.52747 16.9256 6.45312 16.834 6.45312H13.0156C12.5808 6.45312 12.2262 6.80319 12.2189 7.23632Z" fill="url(#paint1_linear_121_773)"/>
</g>
<defs>
<linearGradient id="paint0_linear_121_773" x1="8.49999" y1="0.609375" x2="8.49999" y2="13.8906" gradientUnits="userSpaceOnUse">
<stop stop-color="white"/>
<stop offset="1" stop-color="white" stop-opacity="0"/>
</linearGradient>
<linearGradient id="paint1_linear_121_773" x1="14.6094" y1="6.45312" x2="14.6094" y2="8.04687" gradientUnits="userSpaceOnUse">
<stop stop-color="white"/>
<stop offset="1" stop-color="white" stop-opacity="0"/>
</linearGradient>
</defs>
</svg>
