<svg width="11" height="18" viewBox="0 0 11 18" fill="none" xmlns="http://www.w3.org/2000/svg">
<path d="M11 11.7766C11 12.8234 10.622 13.7234 9.86598 14.4766C9.10997 15.217 8.02005 15.6766 6.59622 15.8553V18H4.70619V15.9128C3.77377 15.8617 2.88545 15.6957 2.04124 15.4149C1.19702 15.134 0.516609 14.7894 0 14.3809L1.03952 12.0447C1.51833 12.4021 2.07904 12.7021 2.72165 12.9447C3.36426 13.1872 4.02577 13.3404 4.70619 13.4043V10.2064C3.81157 9.98936 3.05556 9.74681 2.43814 9.47872C1.82073 9.21064 1.30412 8.82128 0.888316 8.31064C0.472509 7.78723 0.264605 7.09787 0.264605 6.24255C0.264605 5.18298 0.642612 4.2766 1.39863 3.5234C2.16724 2.75745 3.26976 2.29149 4.70619 2.12553V0H6.59622V2.08723C8.14605 2.21489 9.42497 2.60426 10.433 3.25532L9.48797 5.61064C8.54296 5.0617 7.57904 4.72979 6.59622 4.61489V7.87021C7.47824 8.07447 8.22165 8.31064 8.82646 8.57872C9.44387 8.83404 9.96048 9.2234 10.3763 9.74681C10.7921 10.2574 11 10.934 11 11.7766ZM3.30756 6.08936C3.30756 6.40851 3.42726 6.67021 3.66667 6.87447C3.90607 7.07872 4.25258 7.25106 4.70619 7.39149V4.67234C4.22738 4.78723 3.87457 4.97234 3.64777 5.22766C3.42096 5.47021 3.30756 5.75745 3.30756 6.08936ZM6.59622 13.3277C7.04983 13.2255 7.39003 13.0596 7.61684 12.8298C7.84364 12.6 7.95705 12.3255 7.95705 12.0064C7.95705 11.6872 7.83734 11.4255 7.59794 11.2213C7.37113 11.017 7.03723 10.8383 6.59622 10.6851V13.3277Z" fill="white"/>
</svg>
