<svg width="23" height="15" viewBox="0 0 23 15" fill="none" xmlns="http://www.w3.org/2000/svg">
<path fill-rule="evenodd" clip-rule="evenodd" d="M21.403 0.0719943C21.0509 0.231471 16.6999 2.89601 16.5221 3.06097C16.4166 3.15881 16.2824 3.34128 16.2238 3.46646L16.1172 3.69401L16.1039 8.65529C16.0947 12.0809 16.1058 13.7102 16.1396 13.9191C16.2167 14.3943 16.43 14.6912 16.8375 14.8903L17.0619 15H19.5811C22.0409 15 22.105 14.9977 22.3032 14.9004C22.5477 14.7804 22.7659 14.5577 22.9005 14.2908L23 14.0936V7.48653V0.879442L22.9024 0.686095C22.7696 0.423148 22.5444 0.195263 22.3102 0.0870213C22.0733 -0.0225084 21.6279 -0.0299027 21.403 0.0719943ZM13.5264 4.90671C13.3 4.95432 13.2673 4.97302 10.8088 6.46178C9.25787 7.40094 8.54998 7.85567 8.42051 7.99587C8.08091 8.36367 8.08329 8.33877 8.09733 11.3998C8.10902 13.9537 8.1142 14.1033 8.19679 14.2798C8.31506 14.5326 8.55411 14.7767 8.80293 14.8987C9.0055 14.9981 9.05607 15 11.5061 15C13.9561 15 14.0067 14.9981 14.2093 14.8987C14.4581 14.7767 14.6971 14.5326 14.8154 14.2798C14.8992 14.1009 14.9031 13.938 14.9164 10.0864C14.9262 7.26723 14.9154 6.00597 14.8802 5.83218C14.7553 5.21717 14.1189 4.78206 13.5264 4.90671ZM5.42444 9.79476C5.30838 9.8282 4.15449 10.4959 2.86024 11.2786C1.14106 12.3183 0.455925 12.7573 0.317323 12.9079C-0.238208 13.5117 -0.0372558 14.5341 0.708971 14.9004C0.907134 14.9977 0.971239 15 3.43112 15H5.95033L6.17472 14.8903C6.43595 14.7627 6.57257 14.6384 6.71842 14.3961C6.89517 14.1025 6.92702 13.7247 6.90758 12.1535C6.88775 10.5494 6.88275 10.5195 6.57779 10.1615C6.29312 9.82739 5.82639 9.67898 5.42444 9.79476Z" fill="white"/>
</svg>
