<svg width="17" height="23" viewBox="0 0 17 23" fill="none" xmlns="http://www.w3.org/2000/svg">
<path fill-rule="evenodd" clip-rule="evenodd" d="M11.205 0.0652948C10.7086 0.196485 10.2111 0.639557 10.0227 1.11828C9.95144 1.29942 9.9416 1.56639 9.92883 3.66971C9.92096 4.9617 9.90664 6.01882 9.89699 6.01882C9.86216 6.01882 7.01003 6.51261 6.90963 6.53603L6.80667 6.56004L6.80575 4.70462C6.80525 3.68414 6.78585 2.72035 6.76269 2.56286C6.57993 1.32078 5.16603 0.683527 4.09144 1.3589C3.80522 1.53878 3.60259 1.77761 3.43113 2.13723L3.30602 2.39962L3.28314 4.78186L3.26026 7.16411L2.66538 7.26576C1.02886 7.5455 0.903108 7.58659 0.51584 7.9682C-0.350536 8.82207 -0.0900242 10.2191 1.03092 10.7303C1.45497 10.9236 2.09136 10.9059 3.18018 10.6702L3.28314 10.6479V12.4389V14.2299L2.43461 14.3743C1.96795 14.4538 1.47557 14.5594 1.34044 14.6091C0.678609 14.8524 0.251118 15.466 0.246313 16.1796C0.243476 16.6012 0.305206 16.81 0.536661 17.1619C0.736816 17.4662 1.13168 17.7567 1.47168 17.8499C1.74276 17.9241 2.27637 17.9072 2.8141 17.8073L3.28314 17.7201V19.5553C3.28314 20.7428 3.3013 21.4745 3.33457 21.6287C3.4498 22.1621 3.80261 22.6036 4.29759 22.8336C5.36046 23.3275 6.5937 22.6722 6.76269 21.5238C6.78585 21.3663 6.80525 20.3133 6.80575 19.1836C6.80662 17.2668 6.81202 17.1282 6.88675 17.1066C6.96724 17.0833 9.83644 16.5842 9.8898 16.5842C9.9055 16.5842 9.91836 17.4398 9.91836 18.4855C9.91836 20.6233 9.93199 20.7414 10.2284 21.1684C11.0508 22.3535 12.862 22.0964 13.3388 20.7269C13.4004 20.55 13.4144 20.1704 13.43 18.24L13.4485 15.9618L13.7769 15.9086C15.0127 15.7084 15.7949 15.5481 16.0119 15.4505C16.1464 15.39 16.3572 15.2414 16.4805 15.1203C17.4864 14.132 16.955 12.4881 15.5435 12.222C15.2724 12.1709 15.2583 12.1722 14.2084 12.3446C13.812 12.4097 13.4779 12.4533 13.4658 12.4415C13.4494 12.4254 13.4319 10.0298 13.4408 9.02187C13.4417 8.92021 13.4663 8.89607 13.5906 8.87463C15.6873 8.51284 15.8364 8.46977 16.2236 8.11396C17.1969 7.21946 16.7942 5.61347 15.5021 5.23649C15.1668 5.13866 14.9407 5.14563 14.1945 5.27682C13.8435 5.3385 13.5322 5.38908 13.5028 5.38922C13.4631 5.38935 13.4443 4.87709 13.4298 3.39996C13.4142 1.82621 13.3965 1.37293 13.3447 1.23068C13.1104 0.586955 12.6538 0.174366 12.0325 0.0448384C11.7195 -0.0203973 11.5097 -0.015182 11.205 0.0652948ZM9.91836 11.3007V13.0757L9.8154 13.0984C9.75874 13.1109 9.11526 13.223 8.38539 13.3476C7.65552 13.4722 7.00147 13.5854 6.93196 13.5992L6.80561 13.6243L6.81756 11.8338L6.82955 10.0433L8.27099 9.78914C9.06379 9.64936 9.75874 9.53287 9.8154 9.53031L9.91836 9.52563V11.3007Z" fill="white"/>
</svg>
