<svg width="23" height="23" viewBox="0 0 23 23" fill="none" xmlns="http://www.w3.org/2000/svg">
<path fill-rule="evenodd" clip-rule="evenodd" d="M18.3057 0.0378578C17.5857 0.182422 16.9923 0.662221 16.7507 1.29512C16.4251 2.14799 16.5971 3.01655 17.2139 3.63354C17.4905 3.91018 17.9167 4.15455 18.2023 4.20025C18.411 4.23364 18.4278 4.30581 18.227 4.30626C17.9524 4.30684 17.3216 4.48866 16.8986 4.68908C15.9997 5.115 15.3275 5.77316 14.8801 6.66517C14.7179 6.98859 14.5313 7.5686 14.4897 7.87849C14.4607 8.09477 14.4647 8.10623 14.5974 8.1846C14.8385 8.32705 15.4682 8.87066 15.6813 9.12038C16.4362 10.005 16.8614 10.8903 17.0464 11.9625C17.1426 12.5204 17.1455 16.0419 17.05 16.4924C16.9156 17.127 16.6378 17.65 16.1589 18.1705L15.8539 18.5019L15.8669 20.4926C15.8792 22.3897 15.8841 22.4904 15.9697 22.6358C16.0191 22.7197 16.1166 22.8309 16.1864 22.8829C16.3116 22.9763 16.3437 22.9775 18.71 22.9775C21.0606 22.9775 21.1091 22.9757 21.2307 22.8849C21.299 22.8339 21.3965 22.7364 21.4474 22.6681C21.5388 22.5457 21.5402 22.4986 21.5527 19.0759L21.5654 15.6078L21.8206 15.4969C22.1286 15.363 22.5666 14.9438 22.741 14.6158C22.9985 14.1316 23 14.1103 23 11.043C23 8.76866 22.9873 8.1549 22.9341 7.85067C22.8614 7.43567 22.7082 6.95219 22.5511 6.64185C22.2174 5.98288 21.5404 5.25912 20.897 4.87351C20.4564 4.60945 19.771 4.36571 19.3532 4.32455C19.0132 4.29103 18.9589 4.24195 19.2153 4.19998C19.5187 4.15037 19.9393 3.91467 20.2128 3.64109C21.4048 2.44867 20.8231 0.403336 19.1938 0.057945C18.863 -0.0121577 18.586 -0.0184041 18.3057 0.0378578ZM11.1631 4.35165C10.6321 4.44669 10.2663 4.64046 9.93693 5.00095C9.55505 5.41891 9.39131 5.85688 9.39028 6.46295C9.38857 7.50258 10.0098 8.28773 11.0262 8.53071L11.3385 8.60535L11.0208 8.63492C9.37222 8.78816 7.86051 10.0603 7.39619 11.6848C7.33762 11.8899 7.27697 12.1409 7.26147 12.2426C7.23358 12.4257 7.23555 12.429 7.4687 12.5844C8.65226 13.3734 9.51601 14.6987 9.81412 16.183C9.90872 16.654 9.95104 17.8038 9.89138 18.2815C9.78981 19.0951 9.50142 19.7241 8.97313 20.2846L8.66991 20.6063V21.5455C8.66991 22.6353 8.69412 22.7262 9.0309 22.8989C9.22766 22.9998 9.2322 23 11.5 23C13.7678 23 13.7723 22.9998 13.9691 22.8989C14.343 22.7071 14.3301 22.8056 14.3301 20.1392V17.7938L14.5796 17.6795C14.8819 17.5411 15.3515 17.1017 15.5097 16.8093C15.769 16.33 15.775 16.2635 15.7566 14.092C15.7404 12.1857 15.7355 12.0886 15.6389 11.7686C15.2726 10.555 14.4799 9.59335 13.3996 9.05239C13.006 8.8553 12.412 8.67806 12.0043 8.63604L11.7021 8.60495L11.9657 8.54491C13.3877 8.22096 14.0795 6.56442 13.3097 5.32661C12.86 4.60361 11.9823 4.20497 11.1631 4.35165ZM3.88573 8.69545C3.00274 8.89336 2.37693 9.49804 2.20587 10.3186C1.96199 11.4885 2.65383 12.598 3.79588 12.8685L4.02049 12.9217L3.79588 12.9547C2.50667 13.1441 1.41713 13.8108 0.721967 14.836C0.499064 15.1648 0.243144 15.7432 0.131918 16.1695C0.00757367 16.6462 -0.0435475 17.8951 0.0432417 18.3364C0.161611 18.9382 0.616265 19.5491 1.14095 19.8112L1.41502 19.9482L1.43748 21.2462C1.45864 22.4681 1.46538 22.5515 1.55257 22.6682C1.60351 22.7364 1.70099 22.8339 1.76923 22.8849C1.89088 22.9757 1.93949 22.9775 4.28207 22.9775H6.67089L6.81756 22.8729C7.11009 22.6642 7.11858 22.6198 7.13448 21.2136L7.14881 19.9439L7.39017 19.8297C7.86073 19.607 8.25097 19.1613 8.45384 18.6149C8.54215 18.377 8.55275 18.2611 8.55406 17.5176C8.55572 16.6024 8.50015 16.2457 8.26242 15.6455C7.8115 14.507 6.83404 13.566 5.70075 13.1793C5.44317 13.0915 4.84804 12.9587 4.58736 12.931C4.57209 12.9294 4.66845 12.8987 4.80159 12.8629C5.85614 12.5792 6.54317 11.5604 6.38976 10.5077C6.25936 9.6124 5.68139 8.95627 4.8272 8.73369C4.58062 8.66943 4.09057 8.64953 3.88573 8.69545Z" fill="white"/>
</svg>
