<svg width="22" height="18" viewBox="0 0 22 18" fill="none" xmlns="http://www.w3.org/2000/svg">
<path fill-rule="evenodd" clip-rule="evenodd" d="M20.0786 0.0648868C20.0068 0.101469 19.7071 0.380423 19.4126 0.68483L18.8773 1.23826L19.8222 2.21356L20.7672 3.18881L21.3386 2.60142C22.2173 1.69795 22.2179 1.63583 21.3556 0.735512C21.0325 0.398204 20.7159 0.0939307 20.6521 0.0592997C20.5021 -0.0218901 20.2442 -0.019407 20.0786 0.0648868ZM15.8154 4.39735C13.3842 6.91024 13.5652 6.65435 13.5669 7.57586C13.568 8.17425 13.6411 8.40616 13.8752 8.55333C14.0013 8.63261 14.0905 8.64263 14.6624 8.64192C15.2023 8.64126 15.3354 8.62756 15.4794 8.55794C15.5946 8.5022 16.3467 7.75615 17.758 6.29757L19.8646 4.12043L18.9408 3.16695C18.4327 2.64257 17.997 2.21351 17.9727 2.21351C17.9482 2.21351 16.9775 3.19622 15.8154 4.39735ZM0.813699 2.74814C0.510905 2.86827 0.263407 3.10141 0.120868 3.40081L0 3.65462V10.3502V17.0459L0.098595 17.2363C0.254894 17.5381 0.473153 17.7555 0.747481 17.8825L1.00147 18L10.0679 17.9885L19.1342 17.977L19.3158 17.877C19.6005 17.7201 19.7871 17.5266 19.9172 17.2535L20.0372 17.0015L20.0487 11.4157L20.0603 5.82994L18.2428 7.6931C16.3169 9.66746 16.2473 9.72737 15.6729 9.90496C15.3585 10.0022 14.4556 10.0416 14.0174 9.97732C13.1809 9.85463 12.525 9.2616 12.3425 8.4627C12.2648 8.12299 12.2534 7.101 12.323 6.71128C12.3488 6.56655 12.4366 6.29886 12.5182 6.11635C12.6592 5.80112 12.7423 5.70627 14.1791 4.22074L15.6916 2.65693L8.36178 2.65924C1.19707 2.6615 1.02706 2.66349 0.813699 2.74814ZM6.75915 5.82697C7.29646 5.9576 7.93674 6.35233 8.24302 6.74174C8.55944 7.14401 8.7062 7.57799 8.70598 8.11098C8.70564 9.00872 8.23928 9.96362 7.3527 10.8817C6.63742 11.6224 5.70948 12.2831 4.7354 12.7452L4.29028 12.9563L4.26285 13.3604C4.24775 13.5827 4.22256 14.3007 4.2069 14.9559C4.18089 16.0435 4.17057 16.1629 4.08862 16.3272C3.86696 16.7716 3.25325 16.7831 2.98429 16.3479C2.89739 16.2073 2.89563 16.166 2.91851 14.8242L2.94207 13.4452L2.52447 13.5493C1.98897 13.683 1.75433 13.6841 1.56939 13.5539C1.30319 13.3665 1.20649 13.047 1.3274 12.7544C1.43292 12.499 1.57455 12.4087 2.05119 12.2931C2.29469 12.234 2.62354 12.1452 2.78203 12.0957C3.07003 12.0058 3.07016 12.0057 3.09334 11.8209C3.3782 9.54867 3.71887 8.22666 4.28839 7.18352C4.51499 6.76857 5.10798 6.1383 5.41778 5.98314C5.86797 5.75771 6.278 5.70995 6.75915 5.82697ZM5.90095 7.26635C5.46761 7.54974 5.08428 8.35135 4.76928 9.63292C4.65598 10.0939 4.43733 11.3493 4.46532 11.3782C4.47414 11.3873 4.62433 11.3117 4.79908 11.2103C6.21466 10.3886 7.31692 9.14432 7.40451 8.26923C7.45043 7.81038 7.23682 7.47299 6.75352 7.2409C6.4398 7.09027 6.1573 7.0987 5.90095 7.26635ZM9.91625 10.585C10.2305 10.7543 10.3747 10.9995 10.4413 11.478L10.4916 11.8388L10.7496 11.5678C11.133 11.1651 11.392 11.0555 11.7826 11.1308C12.0713 11.1864 12.2522 11.339 12.5739 11.798C12.7888 12.1047 12.8858 12.2091 12.9465 12.1991C12.9916 12.1917 13.5092 12.0452 14.0968 11.8735C15.2783 11.5284 15.3536 11.5223 15.6066 11.7514C15.8732 11.9927 15.9115 12.3664 15.699 12.6536C15.6402 12.7332 15.5377 12.8206 15.4712 12.8479C15.126 12.9897 12.8896 13.6094 12.7228 13.6094C12.3442 13.6094 12.089 13.4273 11.7546 12.9187L11.5689 12.6364L11.1377 13.0733C10.7433 13.4729 10.6861 13.5148 10.4667 13.5651C9.84294 13.7081 9.26879 13.2114 9.26548 12.526C9.26393 12.2107 9.21052 12.2494 8.51425 13.071C7.68632 14.0478 7.55509 14.1281 7.13238 13.9171C6.94447 13.8233 6.77222 13.5559 6.77222 13.3581C6.77222 13.1346 6.92848 12.9113 7.83226 11.8433C8.59608 10.9406 8.84078 10.6797 9.01424 10.583C9.31381 10.416 9.60379 10.4167 9.91625 10.585Z" fill="white"/>
</svg>
