<svg width="25" height="16" viewBox="0 0 25 16" fill="none" xmlns="http://www.w3.org/2000/svg">
<path fill-rule="evenodd" clip-rule="evenodd" d="M20.5847 0.0454196C19.2998 0.289537 18.2571 1.24616 17.8008 2.59944C17.5648 3.29948 17.5706 3.91942 17.8204 4.68195C17.992 5.2059 18.2531 5.60304 18.7298 6.06512L19.1527 6.47514L17.9102 8.27985C17.2268 9.27242 16.659 10.0845 16.6483 10.0845C16.6376 10.0845 16.5111 10.0316 16.3672 9.96688C15.9328 9.77156 15.46 9.69244 14.8685 9.71613C14.2895 9.73934 14.0099 9.8204 13.5164 10.1082C13.3601 10.1994 13.2257 10.274 13.2178 10.274C13.2099 10.274 12.5631 9.58197 11.7805 8.73615L10.3575 7.1983L10.4754 6.85304C10.708 6.1719 10.6732 5.54519 10.3726 5.00309C10.2018 4.69502 9.72538 4.22621 9.40347 4.04941C8.29705 3.44179 7.16016 3.54516 6.36964 4.32532C5.63777 5.04753 5.37226 6.00908 5.67362 6.84617L5.79542 7.18456L4.76844 8.33845C4.20357 8.97307 3.6766 9.5642 3.59746 9.65208L3.45345 9.81182L3.14944 9.66823C2.00903 9.12973 0.816571 9.52028 0.26055 10.6144C-0.0704115 11.2656 -0.0866025 11.9319 0.21501 12.4876C0.629323 13.2509 1.73554 13.7891 2.59054 13.6433C3.48735 13.4903 4.21859 12.691 4.36215 11.7069C4.39767 11.4635 4.28873 10.9244 4.15128 10.6635L4.05149 10.4741L5.03484 9.36731C5.5757 8.75865 6.09312 8.17961 6.18464 8.08059L6.3511 7.90057L6.53248 8.03886C6.97683 8.37777 7.59306 8.58157 8.18127 8.58413C8.74438 8.58659 9.20429 8.42623 9.61664 8.08367C9.7066 8.00892 9.80149 7.95463 9.82757 7.96306C9.85359 7.97144 10.4869 8.63875 11.235 9.44591L12.5951 10.9135L12.4758 11.103C12.1209 11.6671 11.9093 12.323 11.9104 12.8559C11.9128 13.9826 12.6479 15.1271 13.6848 15.6189C14.6839 16.0927 15.6547 16.1251 16.5325 15.7139C16.8598 15.5606 17.0169 15.4459 17.3602 15.1093C17.711 14.7653 17.8222 14.6172 18.007 14.2486C18.6431 12.979 18.5073 11.7587 17.6237 10.8071L17.4074 10.574L18.6772 8.73037C19.7403 7.18693 19.9648 6.88767 20.0563 6.89236C20.1164 6.89549 20.3416 6.93557 20.5569 6.98147C21.0728 7.09152 21.9199 7.05865 22.4156 6.90937C23.3887 6.61636 24.1829 5.987 24.6102 5.17023C24.6805 5.03602 24.7961 4.73846 24.8672 4.50894C24.9772 4.15434 24.9971 3.99929 24.9997 3.47585C25.0025 2.9294 24.9881 2.81684 24.8715 2.47731C24.5116 1.4285 23.552 0.560421 22.3423 0.18901C21.7446 0.00553113 21.0804 -0.0487122 20.5847 0.0454196Z" fill="white"/>
</svg>
