<svg width="33" height="28" viewBox="0 0 33 28" fill="none" xmlns="http://www.w3.org/2000/svg">
<path fill-rule="evenodd" clip-rule="evenodd" d="M15.4675 0.067917C14.2793 0.32165 13.1917 0.987539 12.5239 1.86996C12.1683 2.33991 0.736298 20.8576 0.44294 21.4388C0.0965895 22.1252 -0.00197119 22.557 2.9716e-05 23.3803C0.00138517 23.9464 0.0335933 24.21 0.147258 24.5848C0.585972 26.0315 1.70745 27.1958 3.1479 27.7002C4.03469 28.0107 3.49729 27.9985 16.4331 27.9997C29.4805 28.0008 28.9609 28.0133 29.8473 27.6782C30.5146 27.426 30.9563 27.1449 31.5262 26.6098C32.1435 26.0302 32.4351 25.6092 32.6944 24.9237C33.1575 23.6992 33.0949 22.5472 32.5025 21.3871C32.2216 20.837 21.1051 2.79284 20.603 2.07187C19.9564 1.14349 18.8758 0.405543 17.7458 0.120645C17.2121 -0.0138619 15.9835 -0.0423095 15.4675 0.067917ZM17.3002 8.40171C17.8405 8.6491 18.1889 9.10946 18.2904 9.71017C18.3237 9.90756 18.2763 11.033 18.1574 12.8634C18.0557 14.4289 17.9469 16.2742 17.9157 16.9641C17.8634 18.1165 17.846 18.2417 17.702 18.5037C17.4781 18.9108 17.1084 19.1376 16.6144 19.1711C15.9441 19.2164 15.4628 18.9592 15.2234 18.4276C15.1175 18.1927 15.0683 17.529 14.6398 10.5451C14.5895 9.72552 14.684 9.31964 15.022 8.9038C15.2454 8.62893 15.8042 8.27638 16.091 8.22933C16.4417 8.17183 16.9592 8.24564 17.3002 8.40171ZM17.3002 20.6021C18.3409 21.0786 18.6184 22.4205 17.846 23.2416C16.7329 24.4247 14.6718 23.6894 14.6718 22.1092C14.6718 20.8334 16.063 20.0358 17.3002 20.6021Z" fill="black" fill-opacity="0.2"/>
</svg>
